<svg width="147" height="28" viewBox="0 0 147 28" fill="none" xmlns="http://www.w3.org/2000/svg">
<path fill-rule="evenodd" clip-rule="evenodd" d="M13.5231 14.6309H0.52002V1.6278C7.70143 1.6278 13.5231 7.44948 13.5231 14.6309ZM26.5262 14.6309V1.6278C19.3449 1.6278 13.5231 7.44948 13.5231 14.6309H26.5262ZM13.5231 27.634H0.52002V14.6309C7.70143 14.6309 13.5231 20.4526 13.5231 27.634ZM13.5231 27.634H26.5262V14.6309C19.3449 14.6309 13.5231 20.4526 13.5231 27.634Z" fill="white"/>
<path d="M36.0618 27.634V1.28105H47.335V5.30719H41.2592V13.1399H46.969V17.166H41.2592V27.634H36.0618Z" fill="white"/>
<path d="M52.2633 6.40523C50.5065 6.40523 49.1156 5.01438 49.1156 3.14771C49.1156 1.31765 50.5065 0 52.2633 0C54.0568 0 55.411 1.31765 55.411 3.14771C55.411 5.01438 54.0568 6.40523 52.2633 6.40523ZM49.7378 27.634V8.96732H54.7888V27.634H49.7378Z" fill="white"/>
<path d="M57.6286 27.634V8.96732H62.4965V11.5294C63.5214 9.62615 65.0952 8.60131 67.2913 8.60131C69.89 8.60131 71.4639 10.3582 71.4639 13.3229V27.634H66.4129V14.4575C66.4129 13.2131 65.8639 12.6275 64.839 12.6275C63.4116 12.6275 62.6795 13.8353 62.6795 15.2627V27.634H57.6286Z" fill="white"/>
<path d="M79.513 28C75.7431 28 73.4738 25.7673 73.2908 21.8144H77.3535C77.4999 23.498 78.3418 24.3399 79.6228 24.3399C80.5378 24.3399 81.1601 23.8275 81.1601 22.9124C81.1601 22.034 80.8307 21.5216 79.2934 20.6065L77.1339 19.3255C75.0842 18.1176 73.9862 16.3974 73.9862 13.9085C73.9862 10.7974 76.1823 8.60131 79.4032 8.60131C82.9169 8.60131 84.9666 10.6876 85.1862 14.2013H81.1235C81.0136 12.7739 80.428 12.2614 79.6228 12.2614C78.8176 12.2614 78.232 12.7373 78.232 13.6157C78.232 14.4209 78.6346 15.0065 79.9156 15.7386L82.3679 17.166C84.2346 18.2641 85.4058 20.2405 85.4058 22.6196C85.4058 25.8771 83.2097 28 79.513 28Z" fill="white"/>
<path d="M93.9391 28C89.4737 28 86.4724 24.0837 86.4724 18.2275C86.4724 12.3346 89.4737 8.60131 94.1587 8.60131C98.5874 8.60131 101.04 11.932 101.04 17.7882C101.04 18.4837 101.003 19.0693 100.93 19.5451H91.5966C91.743 22.8758 92.5482 24.3399 94.1221 24.3399C95.3665 24.3399 96.0253 23.4614 96.2815 21.7046H100.747C100.125 25.3647 97.892 28 93.9391 28ZM94.1221 12.2614C92.7678 12.2614 91.8894 13.4693 91.6332 16.2876H96.6476C96.4646 13.4327 95.5861 12.2614 94.1221 12.2614Z" fill="white"/>
<path d="M103.069 27.634V8.96732H107.936V11.5294C108.961 9.62615 110.535 8.60131 112.731 8.60131C115.33 8.60131 116.904 10.3582 116.904 13.3229V27.634H111.853V14.4575C111.853 13.2131 111.304 12.6275 110.279 12.6275C108.852 12.6275 108.119 13.8353 108.119 15.2627V27.634H103.069Z" fill="white"/>
<path d="M124.953 28C121.183 28 118.914 25.7673 118.731 21.8144H122.793C122.94 23.498 123.782 24.3399 125.063 24.3399C125.978 24.3399 126.6 23.8275 126.6 22.9124C126.6 22.034 126.271 21.5216 124.733 20.6065L122.574 19.3255C120.524 18.1176 119.426 16.3974 119.426 13.9085C119.426 10.7974 121.622 8.60131 124.843 8.60131C128.357 8.60131 130.407 10.6876 130.626 14.2013H126.563C126.454 12.7739 125.868 12.2614 125.063 12.2614C124.258 12.2614 123.672 12.7373 123.672 13.6157C123.672 14.4209 124.075 15.0065 125.356 15.7386L127.808 17.166C129.675 18.2641 130.846 20.2405 130.846 22.6196C130.846 25.8771 128.65 28 124.953 28Z" fill="white"/>
<path d="M139.379 28C134.914 28 131.912 24.0837 131.912 18.2275C131.912 12.3346 134.914 8.60131 139.599 8.60131C144.027 8.60131 146.48 11.932 146.48 17.7882C146.48 18.4837 146.443 19.0693 146.37 19.5451H137.037C137.183 22.8758 137.988 24.3399 139.562 24.3399C140.806 24.3399 141.465 23.4614 141.721 21.7046H146.187C145.565 25.3647 143.332 28 139.379 28ZM139.562 12.2614C138.208 12.2614 137.329 13.4693 137.073 16.2876H142.088C141.904 13.4327 141.026 12.2614 139.562 12.2614Z" fill="white"/>
</svg>
