<svg width="159" height="30" viewBox="0 0 159 30" fill="none" xmlns="http://www.w3.org/2000/svg">
<path d="M12.0945 21.1836C11.0454 21.1836 10.1846 21.1096 9.51208 20.9617C8.85303 20.8137 8.31503 20.5313 7.89809 20.1143C7.60219 19.8184 7.31974 19.6705 7.05074 19.6705C6.80865 19.6705 6.60017 19.7579 6.42532 19.9328C6.25048 20.1076 6.16305 20.3161 6.16305 20.5582C6.16305 20.6254 6.1765 20.7263 6.2034 20.8608C6.24375 20.9818 6.311 21.1365 6.40515 21.3248C6.7414 21.9301 6.8221 22.6093 6.64725 23.3625C6.4724 24.1157 6.24375 24.8689 5.9613 25.6221L4.46836 29.536H0.33252L11.9532 0.484196H16.3513L27.9721 29.536H23.8362L22.3433 25.6221C22.0608 24.8689 21.8322 24.1157 21.6573 23.3625C21.4825 22.6093 21.5632 21.9301 21.8994 21.3248C22.007 21.1365 22.0743 20.9818 22.1012 20.8608C22.1281 20.7263 22.1415 20.6254 22.1415 20.5582C22.1415 20.3161 22.0541 20.1076 21.8793 19.9328C21.7044 19.7579 21.4959 19.6705 21.2538 19.6705C20.9848 19.6705 20.7024 19.8184 20.4065 20.1143C19.9895 20.5313 19.4448 20.8137 18.7723 20.9617C18.1133 21.1096 17.2592 21.1836 16.2101 21.1836H12.0945ZM14.9189 17.9556C16.0353 17.9556 16.923 18.0632 17.582 18.2784C18.2545 18.4802 18.7791 18.7357 19.1557 19.0451C19.2767 19.1392 19.4045 19.2401 19.539 19.3477C19.6869 19.4418 19.855 19.4889 20.0433 19.4889C20.2989 19.4889 20.5074 19.4082 20.6688 19.2468C20.8436 19.0854 20.931 18.8769 20.931 18.6214C20.931 18.4869 20.8907 18.3322 20.81 18.1574C20.7427 17.9825 20.5746 17.7942 20.3056 17.5925C19.808 17.2024 19.3305 16.6375 18.8732 15.8978C18.4294 15.1446 18.0393 14.3309 17.7031 13.4566L15.7663 8.39274C15.2417 7.0343 14.9593 6.0121 14.9189 5.32616C14.8786 4.62677 14.9929 4.08877 15.2619 3.71217C15.4637 3.40282 15.5645 3.1002 15.5645 2.8043C15.5645 2.41426 15.4233 2.08473 15.1409 1.81574C14.8719 1.53329 14.5423 1.39206 14.1523 1.39206C13.7757 1.39206 13.4462 1.53329 13.1637 1.81574C12.8813 2.08473 12.7401 2.41426 12.7401 2.8043C12.7401 3.1002 12.8342 3.38937 13.0225 3.67182C13.2915 4.07532 13.4058 4.62677 13.3655 5.32616C13.3386 6.0121 13.0628 7.0343 12.5383 8.39274L10.6015 13.4566C10.2653 14.3309 9.87522 15.1446 9.43138 15.8978C8.98753 16.651 8.51006 17.2159 7.99896 17.5925C7.74341 17.7942 7.57529 17.9825 7.49459 18.1574C7.41389 18.3322 7.37354 18.4869 7.37354 18.6214C7.37354 18.8769 7.45424 19.0854 7.61564 19.2468C7.79049 19.4082 8.00569 19.4889 8.26124 19.4889C8.44953 19.4889 8.61093 19.4418 8.74543 19.3477C8.89338 19.2401 9.02788 19.1392 9.14893 19.0451C9.52553 18.7357 10.0433 18.4802 10.7024 18.2784C11.3749 18.0632 12.2693 17.9556 13.3856 17.9556H14.9189Z" fill="white"/>
<path d="M31.1904 29.536V0.484196H39.462C40.2421 0.484196 41.1298 0.511096 42.1251 0.564896C43.1339 0.605245 44.1426 0.739744 45.1513 0.968393C46.1735 1.19704 47.115 1.58036 47.9758 2.11836C48.8366 2.65636 49.5293 3.40282 50.0538 4.35777C50.5784 5.31271 50.8407 6.5501 50.8407 8.06994C50.8407 9.89913 50.3766 11.3652 49.4486 12.4681C48.534 13.5709 47.2764 14.304 45.6759 14.6671C47.8144 15.0572 49.341 15.8642 50.2556 17.0881C51.1702 18.312 51.6275 19.7915 51.6275 21.5266C51.6275 23.1137 51.3181 24.4183 50.6994 25.4405C50.0807 26.4492 49.2805 27.236 48.2986 27.8009C47.3302 28.3658 46.2879 28.7693 45.1715 29.0114C44.0686 29.2535 43.0061 29.4015 41.9839 29.4553C40.9752 29.5091 40.1345 29.536 39.462 29.536H31.1904ZM34.4183 14.7478C34.6066 14.7478 34.768 14.7007 34.9025 14.6066C35.0505 14.499 35.185 14.3981 35.306 14.304C35.6826 13.9946 36.2004 13.7391 36.8595 13.5373C37.532 13.3221 38.4264 13.2145 39.5427 13.2145C40.1883 13.2145 40.9281 13.1876 41.762 13.1338C42.5959 13.08 43.4029 12.9119 44.183 12.6295C44.9765 12.347 45.6288 11.8763 46.1399 11.2172C46.6645 10.5447 46.9267 9.60323 46.9267 8.39274C46.9267 7.15535 46.6577 6.21385 46.1197 5.56826C45.5952 4.92266 44.9362 4.47209 44.1426 4.21654C43.3491 3.94755 42.5286 3.7996 41.6813 3.7727C40.8474 3.73235 40.1144 3.71217 39.4822 3.71217C39.1056 3.71217 38.5273 3.64492 37.7472 3.51042C36.9671 3.37592 36.1197 2.91863 35.2052 2.13853C35.0976 2.04438 34.9631 1.94351 34.8017 1.83591C34.6403 1.71486 34.4318 1.65434 34.1762 1.65434C33.84 1.65434 33.5508 1.77539 33.3087 2.01748C33.0666 2.24613 32.9456 2.53531 32.9456 2.885C32.9456 3.11365 32.9994 3.30868 33.107 3.47007C33.2146 3.61802 33.376 3.79287 33.5912 3.99462C34.1023 4.49227 34.4654 5.09751 34.6806 5.81036C34.9093 6.50975 35.0236 7.28984 35.0236 8.15064V8.73571C35.0236 10.7263 34.6739 12.1385 33.9745 12.9724C33.8803 13.0935 33.7795 13.228 33.6719 13.3759C33.5777 13.5104 33.5306 13.6785 33.5306 13.8803C33.5306 14.1358 33.6113 14.3443 33.7727 14.5057C33.9476 14.6671 34.1628 14.7478 34.4183 14.7478ZM34.1762 28.3658C34.4318 28.3658 34.6403 28.312 34.8017 28.2044C34.9631 28.0834 35.0976 27.9758 35.2052 27.8816C36.1197 27.0881 36.9604 26.6308 37.727 26.5098C38.5071 26.3753 39.0854 26.308 39.462 26.308C40.3228 26.308 41.224 26.2811 42.1655 26.2273C43.107 26.1601 43.9879 25.9852 44.8084 25.7028C45.6288 25.4069 46.2946 24.9227 46.8057 24.2502C47.3302 23.5777 47.5925 22.6295 47.5925 21.4055C47.5925 20.1681 47.3235 19.2132 46.7855 18.5407C46.261 17.8547 45.5817 17.3638 44.7479 17.0679C43.9274 16.772 43.0532 16.5972 42.1251 16.5434C41.1971 16.4761 40.3363 16.4425 39.5427 16.4425C38.4264 16.4425 37.532 16.3349 36.8595 16.1197C36.2004 15.9045 35.6826 15.649 35.306 15.3531C35.185 15.2455 35.0505 15.1446 34.9025 15.0504C34.768 14.9563 34.6066 14.9092 34.4183 14.9092C34.1628 14.9092 33.9476 14.9899 33.7727 15.1513C33.6113 15.3127 33.5306 15.5212 33.5306 15.7767C33.5306 15.9785 33.5777 16.1533 33.6719 16.3013C33.7795 16.4358 33.8803 16.5636 33.9745 16.6846C34.6739 17.5185 35.0236 18.9106 35.0236 20.8608V21.8695C35.0236 22.7303 34.9093 23.5104 34.6806 24.2098C34.4654 24.9092 34.1023 25.5145 33.5912 26.0256C33.376 26.2273 33.2146 26.4089 33.107 26.5703C32.9994 26.7182 32.9456 26.9065 32.9456 27.1352C32.9456 27.4714 33.0666 27.7606 33.3087 28.0027C33.5508 28.2448 33.84 28.3658 34.1762 28.3658Z" fill="white"/>
<path d="M56.4799 29.536V0.484196H60.3132V21.8695C60.3132 22.7303 60.1988 23.5104 59.9702 24.2098C59.755 24.9092 59.3918 25.5145 58.8807 26.0256C58.6655 26.2273 58.5041 26.4089 58.3965 26.5703C58.2889 26.7182 58.2351 26.9065 58.2351 27.1352C58.2351 27.4714 58.3562 27.7606 58.5983 28.0027C58.8404 28.2448 59.1296 28.3658 59.4658 28.3658C59.7214 28.3658 59.9298 28.312 60.0912 28.2044C60.2526 28.0834 60.3871 27.9758 60.4947 27.8816C61.4093 27.0881 62.2499 26.6308 63.0166 26.5098C63.7967 26.3753 64.375 26.308 64.7516 26.308H74.7583V29.536H56.4799Z" fill="white"/>
<path d="M77.8556 29.536V0.484196H95.8515V3.71217H86.1273C85.7507 3.71217 85.1723 3.64492 84.3922 3.51042C83.6256 3.37592 82.785 2.91863 81.8704 2.13853C81.7628 2.04438 81.6283 1.94351 81.4669 1.83591C81.3055 1.71486 81.097 1.65434 80.8415 1.65434C80.5052 1.65434 80.216 1.77539 79.9739 2.01748C79.7318 2.24613 79.6108 2.53531 79.6108 2.885C79.6108 3.11365 79.6646 3.30868 79.7722 3.47007C79.8798 3.61802 80.0412 3.79287 80.2564 3.99462C80.7675 4.49227 81.1306 5.09751 81.3458 5.81036C81.5745 6.50975 81.6888 7.28984 81.6888 8.15064V8.67519C81.6888 10.7868 81.2719 12.2596 80.438 13.0935C80.2766 13.2549 80.1959 13.4633 80.1959 13.7189C80.1959 13.9744 80.2766 14.1829 80.438 14.3443C80.6397 14.5192 80.8482 14.6066 81.0634 14.6066C81.3055 14.6066 81.514 14.5192 81.6888 14.3443C82.5227 13.5104 84.0022 13.0935 86.1273 13.0935H95.206V16.3215H86.1273C84.0022 16.3215 82.5227 15.9045 81.6888 15.0706C81.5274 14.8958 81.3189 14.8083 81.0634 14.8083C80.8213 14.8083 80.6128 14.8958 80.438 15.0706C80.2631 15.2455 80.1757 15.4539 80.1757 15.696C80.1757 15.9112 80.2631 16.1197 80.438 16.3215C81.2719 17.1553 81.6888 18.6416 81.6888 20.7801V21.8695C81.6888 22.7303 81.5745 23.5104 81.3458 24.2098C81.1306 24.9092 80.7675 25.5145 80.2564 26.0256C80.0412 26.2273 79.8798 26.4089 79.7722 26.5703C79.6646 26.7182 79.6108 26.9065 79.6108 27.1352C79.6108 27.4714 79.7318 27.7606 79.9739 28.0027C80.216 28.2448 80.5052 28.3658 80.8415 28.3658C81.097 28.3658 81.3055 28.312 81.4669 28.2044C81.6283 28.0834 81.7628 27.9758 81.8704 27.8816C82.785 27.0881 83.6256 26.6308 84.3922 26.5098C85.1723 26.3753 85.7507 26.308 86.1273 26.308H96.5375V29.536H77.8556Z" fill="white"/>
<path d="M103.811 29.8184C102.99 29.8184 102.298 29.536 101.733 28.9711C101.168 28.3927 100.886 27.7001 100.886 26.8931C100.886 26.0726 101.168 25.38 101.733 24.8151C102.298 24.2367 102.99 23.9475 103.811 23.9475C104.631 23.9475 105.324 24.2367 105.889 24.8151C106.454 25.38 106.736 26.0726 106.736 26.8931C106.736 27.7001 106.454 28.3927 105.889 28.9711C105.324 29.536 104.631 29.8184 103.811 29.8184Z" fill="white"/>
<path d="M121.696 8.15064V29.536H117.863V8.15064C117.863 7.23605 117.964 6.42905 118.166 5.72966C118.367 5.01681 118.697 4.43174 119.154 3.97445C119.329 3.7996 119.464 3.6382 119.558 3.49025C119.665 3.3423 119.719 3.16073 119.719 2.94553C119.719 2.63618 119.612 2.38063 119.396 2.17888C119.181 1.96369 118.919 1.85609 118.61 1.85609C118.394 1.85609 118.206 1.90989 118.045 2.01748C117.883 2.12508 117.749 2.22596 117.641 2.32011C116.915 2.9119 116.189 3.29523 115.462 3.47007C114.749 3.63147 114.07 3.71217 113.425 3.71217H107.695V0.484196H131.844V3.71217H126.135C125.489 3.71217 124.803 3.63147 124.077 3.47007C123.364 3.29523 122.645 2.9119 121.918 2.32011C121.811 2.22596 121.676 2.12508 121.515 2.01748C121.367 1.90989 121.179 1.85609 120.95 1.85609C120.641 1.85609 120.378 1.96369 120.163 2.17888C119.948 2.38063 119.84 2.63618 119.84 2.94553C119.84 3.16073 119.887 3.3423 119.981 3.49025C120.089 3.6382 120.23 3.7996 120.405 3.97445C120.876 4.43174 121.205 5.01681 121.394 5.72966C121.595 6.42905 121.696 7.23605 121.696 8.15064Z" fill="white"/>
<path d="M145.392 0C148.069 0 150.402 0.618695 152.393 1.85609C154.383 3.09348 155.923 4.83524 157.013 7.08137C158.116 9.32751 158.667 11.9637 158.667 14.9899C158.681 18.0161 158.136 20.6523 157.033 22.8985C155.944 25.1446 154.404 26.8931 152.413 28.1439C150.422 29.3813 148.082 30 145.392 30C142.729 30 140.402 29.3813 138.412 28.1439C136.421 26.8931 134.874 25.1446 133.771 22.8985C132.682 20.6523 132.137 18.0161 132.137 14.9899C132.137 11.9637 132.682 9.32751 133.771 7.08137C134.874 4.83524 136.421 3.09348 138.412 1.85609C140.402 0.618695 142.729 0 145.392 0ZM145.392 3.22798C142.514 3.22798 140.241 4.27707 138.573 6.37525C136.919 8.45999 136.091 11.3315 136.091 14.9899C136.091 18.6483 136.919 21.5266 138.573 23.6247C140.241 25.7229 142.514 26.772 145.392 26.772C148.284 26.772 150.557 25.7229 152.211 23.6247C153.879 21.5266 154.713 18.6483 154.713 14.9899C154.713 11.3315 153.879 8.45999 152.211 6.37525C150.557 4.27707 148.284 3.22798 145.392 3.22798Z" fill="white"/>
</svg>
