<svg width="161" height="30" viewBox="0 0 161 30" fill="none" xmlns="http://www.w3.org/2000/svg">
<path d="M0.689453 5C0.689453 2.23858 2.92803 0 5.68945 0H15.6895C15.6895 8.28427 8.97372 15 0.689453 15V5Z" fill="white"/>
<path d="M0.689453 25C0.689453 27.7614 2.92803 30 5.68945 30H15.6895C15.6895 21.7157 8.97372 15 0.689453 15V25Z" fill="white"/>
<path d="M30.6895 5C30.6895 2.23858 28.4509 0 25.6895 0H15.6895C15.6895 8.28427 22.4052 15 30.6895 15V5Z" fill="white"/>
<path d="M30.6895 25C30.6895 27.7614 28.4509 30 25.6895 30H15.6895C15.6895 21.7157 22.4052 15 30.6895 15V25Z" fill="white"/>
<path d="M41.9395 25.29V4.29H55.1395V7.74H45.6895V13.08H54.0295V16.53H45.6895V25.29H41.9395Z" fill="white"/>
<path d="M64.7992 25.71C63.6392 25.71 62.5692 25.51 61.5892 25.11C60.6292 24.71 59.7992 24.16 59.0992 23.46C58.3992 22.76 57.8492 21.93 57.4492 20.97C57.0692 19.99 56.8792 18.93 56.8792 17.79C56.8792 16.65 57.0692 15.6 57.4492 14.64C57.8492 13.66 58.3992 12.82 59.0992 12.12C59.7992 11.42 60.6292 10.87 61.5892 10.47C62.5692 10.07 63.6392 9.87 64.7992 9.87C65.9592 9.87 67.0192 10.07 67.9792 10.47C68.9392 10.87 69.7692 11.43 70.4692 12.15C71.1692 12.85 71.7092 13.68 72.0892 14.64C72.4892 15.6 72.6892 16.65 72.6892 17.79C72.6892 18.93 72.4892 19.98 72.0892 20.94C71.7092 21.9 71.1692 22.74 70.4692 23.46C69.7692 24.16 68.9392 24.71 67.9792 25.11C67.0192 25.51 65.9592 25.71 64.7992 25.71ZM64.7992 22.56C65.4392 22.56 66.0292 22.44 66.5692 22.2C67.1092 21.96 67.5792 21.63 67.9792 21.21C68.3792 20.77 68.6892 20.26 68.9092 19.68C69.1292 19.1 69.2392 18.47 69.2392 17.79C69.2392 17.09 69.1292 16.46 68.9092 15.9C68.6892 15.32 68.3792 14.82 67.9792 14.4C67.5792 13.96 67.1092 13.62 66.5692 13.38C66.0292 13.14 65.4392 13.02 64.7992 13.02C64.1392 13.02 63.5392 13.14 62.9992 13.38C62.4592 13.62 61.9892 13.96 61.5892 14.4C61.2092 14.82 60.9092 15.32 60.6892 15.9C60.4692 16.46 60.3592 17.09 60.3592 17.79C60.3592 18.47 60.4692 19.1 60.6892 19.68C60.9092 20.26 61.2092 20.77 61.5892 21.21C61.9892 21.63 62.4592 21.96 62.9992 22.2C63.5392 22.44 64.1392 22.56 64.7992 22.56Z" fill="white"/>
<path d="M75.8233 10.29H79.2433V25.29H75.8233V10.29ZM84.3433 10.11V13.23H83.5033C82.8433 13.23 82.2533 13.32 81.7333 13.5C81.2133 13.66 80.7633 13.92 80.3833 14.28C80.0233 14.64 79.7433 15.11 79.5433 15.69C79.3433 16.25 79.2433 16.94 79.2433 17.76H78.3133C78.3533 15.16 78.7833 13.24 79.6033 12C80.4233 10.74 81.6933 10.11 83.4133 10.11H84.3433Z" fill="white"/>
<path d="M93.3351 25.71C92.1751 25.71 91.1051 25.52 90.1251 25.14C89.1451 24.74 88.3051 24.19 87.6051 23.49C86.9051 22.79 86.3551 21.96 85.9551 21C85.5751 20.02 85.3851 18.95 85.3851 17.79C85.3851 16.61 85.5851 15.54 85.9851 14.58C86.3851 13.6 86.9251 12.77 87.6051 12.09C88.3051 11.39 89.1351 10.85 90.0951 10.47C91.0551 10.07 92.0951 9.87 93.2151 9.87C94.3151 9.87 95.3151 10.05 96.2151 10.41C97.1151 10.77 97.8751 11.28 98.4951 11.94C99.1351 12.58 99.6351 13.35 99.9951 14.25C100.355 15.15 100.535 16.15 100.535 17.25C100.535 17.47 100.525 17.71 100.505 17.97C100.485 18.21 100.455 18.46 100.415 18.72H88.2051V16.17H97.5951L97.1451 16.59C97.1251 16.01 97.0151 15.49 96.8151 15.03C96.6151 14.57 96.3351 14.18 95.9751 13.86C95.6151 13.52 95.1951 13.26 94.7151 13.08C94.2551 12.88 93.7351 12.78 93.1551 12.78C92.4751 12.78 91.8651 12.9 91.3251 13.14C90.7851 13.38 90.3151 13.72 89.9151 14.16C89.5351 14.6 89.2351 15.12 89.0151 15.72C88.7951 16.32 88.6851 16.99 88.6851 17.73C88.6851 18.49 88.7951 19.18 89.0151 19.8C89.2551 20.4 89.5751 20.92 89.9751 21.36C90.3751 21.78 90.8651 22.11 91.4451 22.35C92.0251 22.59 92.6651 22.71 93.3651 22.71C94.2651 22.71 95.0451 22.53 95.7051 22.17C96.3851 21.79 96.9451 21.23 97.3851 20.49L99.8451 22.41C99.0851 23.49 98.1551 24.31 97.0551 24.87C95.9751 25.43 94.7351 25.71 93.3351 25.71Z" fill="white"/>
<path d="M102.758 17.79C102.758 16.63 102.948 15.57 103.328 14.61C103.728 13.63 104.278 12.79 104.978 12.09C105.678 11.39 106.508 10.85 107.468 10.47C108.448 10.07 109.518 9.87 110.678 9.87C112.278 9.87 113.668 10.23 114.848 10.95C116.028 11.67 116.918 12.7 117.518 14.04L114.578 15.57C114.198 14.75 113.678 14.12 113.018 13.68C112.378 13.24 111.608 13.02 110.708 13.02C110.048 13.02 109.438 13.14 108.878 13.38C108.318 13.62 107.848 13.96 107.468 14.4C107.088 14.82 106.788 15.32 106.568 15.9C106.348 16.46 106.238 17.09 106.238 17.79C106.238 18.47 106.348 19.1 106.568 19.68C106.788 20.26 107.088 20.77 107.468 21.21C107.848 21.63 108.308 21.96 108.848 22.2C109.408 22.44 110.018 22.56 110.678 22.56C111.578 22.56 112.368 22.34 113.048 21.9C113.728 21.44 114.248 20.77 114.608 19.89L117.548 21.36C116.968 22.76 116.078 23.84 114.878 24.6C113.698 25.34 112.298 25.71 110.678 25.71C109.518 25.71 108.448 25.52 107.468 25.14C106.508 24.74 105.678 24.19 104.978 23.49C104.278 22.79 103.728 21.96 103.328 21C102.948 20.02 102.758 18.95 102.758 17.79Z" fill="white"/>
<path d="M119.572 21.15C119.572 19.65 120.152 18.47 121.312 17.61C122.492 16.73 124.172 16.25 126.352 16.17L131.212 15.96V18.45L126.562 18.63C125.362 18.69 124.452 18.9 123.832 19.26C123.232 19.62 122.932 20.16 122.932 20.88C122.932 21.5 123.162 21.99 123.622 22.35C124.102 22.71 124.752 22.89 125.572 22.89C126.192 22.89 126.752 22.79 127.252 22.59C127.772 22.39 128.212 22.11 128.572 21.75C128.952 21.37 129.242 20.93 129.442 20.43C129.642 19.93 129.742 19.38 129.742 18.78V15.84C129.742 14.88 129.442 14.12 128.842 13.56C128.242 12.98 127.422 12.69 126.382 12.69C125.542 12.69 124.812 12.88 124.192 13.26C123.592 13.64 123.112 14.21 122.752 14.97L120.022 13.65C120.582 12.41 121.412 11.47 122.512 10.83C123.632 10.19 124.952 9.87 126.472 9.87C127.492 9.87 128.402 10.02 129.202 10.32C130.022 10.6 130.712 11 131.272 11.52C131.832 12.04 132.262 12.67 132.562 13.41C132.862 14.15 133.012 14.99 133.012 15.93V25.29H129.742V21.87H130.462C129.962 23.13 129.232 24.09 128.272 24.75C127.332 25.39 126.182 25.71 124.822 25.71C123.222 25.71 121.942 25.29 120.982 24.45C120.042 23.61 119.572 22.51 119.572 21.15Z" fill="white"/>
<path d="M142.58 25.71C141 25.71 139.63 25.38 138.47 24.72C137.31 24.06 136.4 23.09 135.74 21.81L138.29 20.25C138.73 21.09 139.31 21.73 140.03 22.17C140.77 22.59 141.63 22.8 142.61 22.8C143.49 22.8 144.19 22.64 144.71 22.32C145.25 22 145.52 21.58 145.52 21.06C145.52 20.56 145.29 20.19 144.83 19.95C144.39 19.69 143.83 19.48 143.15 19.32C142.49 19.14 141.77 18.96 140.99 18.78C140.21 18.6 139.48 18.35 138.8 18.03C138.14 17.71 137.59 17.28 137.15 16.74C136.71 16.2 136.49 15.47 136.49 14.55C136.49 13.15 137.01 12.02 138.05 11.16C139.11 10.3 140.55 9.87 142.37 9.87C143.81 9.87 145.05 10.16 146.09 10.74C147.13 11.32 147.96 12.18 148.58 13.32L146.03 14.91C145.65 14.21 145.16 13.68 144.56 13.32C143.96 12.94 143.23 12.75 142.37 12.75C141.53 12.75 140.87 12.91 140.39 13.23C139.91 13.53 139.67 13.91 139.67 14.37C139.67 14.81 139.89 15.15 140.33 15.39C140.79 15.61 141.36 15.81 142.04 15.99C142.72 16.15 143.45 16.32 144.23 16.5C145.01 16.66 145.73 16.91 146.39 17.25C147.07 17.57 147.63 18.02 148.07 18.6C148.53 19.16 148.76 19.91 148.76 20.85C148.76 21.59 148.61 22.26 148.31 22.86C148.03 23.46 147.62 23.97 147.08 24.39C146.54 24.81 145.89 25.13 145.13 25.35C144.37 25.59 143.52 25.71 142.58 25.71Z" fill="white"/>
<path d="M150.29 13.35V10.29H160.19V13.35H150.29ZM156.23 19.08C156.23 20.2 156.47 21.01 156.95 21.51C157.43 22.01 158.2 22.26 159.26 22.26H160.31V25.47H158.81C156.77 25.47 155.26 24.97 154.28 23.97C153.3 22.97 152.81 21.43 152.81 19.35V6.09H156.23V19.08Z" fill="white"/>
</svg>
