<svg width="161" height="30" viewBox="0 0 161 30" fill="none" xmlns="http://www.w3.org/2000/svg">
<path d="M0.0913086 0H31.5713C33.358 0 34.838 0.346667 36.0113 1.04C37.1846 1.70667 38.0646 2.57333 38.6513 3.64C39.2646 4.70667 39.5713 5.82667 39.5713 7C39.5713 8.17333 39.2646 9.32 38.6513 10.44C38.038 11.5333 37.1046 12.4267 35.8513 13.12C34.6246 13.8133 33.078 14.16 31.2113 14.16C31.2113 14.16 31.198 14.16 31.1713 14.16C31.1713 14.16 31.1713 14.1733 31.1713 14.2C31.198 14.2 31.2113 14.2 31.2113 14.2C33.3713 14.2 35.158 14.5867 36.5713 15.36C37.9846 16.1333 39.038 17.12 39.7313 18.32C40.4246 19.52 40.7713 20.7867 40.7713 22.12C40.7713 23.1067 40.5713 24.0667 40.1713 25C39.798 25.9333 39.2246 26.7867 38.4513 27.56C37.678 28.3067 36.718 28.9067 35.5713 29.36C34.4246 29.7867 33.0913 30 31.5713 30H0.0913086C0.0913086 28.1867 0.0913086 26.3867 0.0913086 24.6C0.0913086 22.7867 0.0913086 20.9733 0.0913086 19.16C0.0913086 17.3467 0.0913086 15.5467 0.0913086 13.76C0.0913086 11.9467 0.0913086 10.1333 0.0913086 8.32C0.0913086 6.93333 0.0913086 5.54667 0.0913086 4.16C0.0913086 2.77333 0.0913086 1.38667 0.0913086 0ZM15.8513 15.76C15.8513 16.0533 15.8513 16.3467 15.8513 16.64C15.8513 16.9333 15.8513 17.2267 15.8513 17.52C15.8513 17.7333 15.8513 17.9467 15.8513 18.16C15.8513 18.3467 15.8513 18.5333 15.8513 18.72C15.8513 18.9067 15.8513 19.0933 15.8513 19.28C15.8513 19.3067 15.8513 19.32 15.8513 19.32C15.8513 19.32 15.8646 19.32 15.8913 19.32H21.5713C22.2913 19.32 22.8246 19.1333 23.1713 18.76C23.5446 18.3867 23.7313 17.96 23.7313 17.48C23.7313 17.24 23.6913 17.0267 23.6113 16.84C23.5313 16.6267 23.4113 16.44 23.2513 16.28C23.118 16.0933 22.9313 15.96 22.6913 15.88C22.478 15.7733 22.2246 15.72 21.9313 15.72H15.8913C15.8913 15.72 15.878 15.7333 15.8513 15.76ZM15.8913 10.12C15.8646 10.12 15.8513 10.1333 15.8513 10.16C15.8513 10.32 15.8513 10.5067 15.8513 10.72C15.8513 10.9067 15.8513 11.1067 15.8513 11.32C15.8513 11.5067 15.8513 11.7067 15.8513 11.92C15.8513 12.2133 15.8513 12.52 15.8513 12.84C15.8513 13.1333 15.8513 13.4133 15.8513 13.68C15.8513 13.7067 15.8513 13.72 15.8513 13.72C15.8513 13.72 15.8646 13.72 15.8913 13.72H21.3713C21.8513 13.72 22.2513 13.64 22.5713 13.48C22.8913 13.2933 23.1313 13.0667 23.2913 12.8C23.4513 12.5067 23.5313 12.2 23.5313 11.88C23.5313 11.4267 23.3713 11.0267 23.0513 10.68C22.758 10.3067 22.318 10.12 21.7313 10.12H15.8913Z" fill="white"/>
<path d="M75.5672 10.08H58.1672C58.1406 10.08 58.1272 10.08 58.1272 10.08V12.28C58.1272 12.3067 58.1272 12.3333 58.1272 12.36C58.1539 12.36 58.1672 12.36 58.1672 12.36H74.9672V18H58.1672C58.1672 18 58.1539 18 58.1272 18C58.1272 18 58.1272 18.0133 58.1272 18.04C58.1272 18.04 58.1272 18.0533 58.1272 18.08V20.32C58.1539 20.32 58.1672 20.32 58.1672 20.32H75.8072V30H41.9272C41.9272 28.4267 41.9272 26.8533 41.9272 25.28C41.9272 23.68 41.9272 22.0933 41.9272 20.52C41.9272 18.9467 41.9272 17.3733 41.9272 15.8C41.9272 14.2 41.9272 12.6133 41.9272 11.04C41.9272 9.44 41.9272 7.85333 41.9272 6.28C41.9272 5.24 41.9272 4.2 41.9272 3.16C41.9272 2.09333 41.9272 1.04 41.9272 0H75.5672V10.08Z" fill="white"/>
<path d="M110.958 10.08H93.5579C93.5312 10.08 93.5179 10.08 93.5179 10.08V12.28C93.5179 12.3067 93.5179 12.3333 93.5179 12.36C93.5445 12.36 93.5579 12.36 93.5579 12.36H110.358V18H93.5579C93.5579 18 93.5445 18 93.5179 18C93.5179 18 93.5179 18.0133 93.5179 18.04C93.5179 18.04 93.5179 18.0533 93.5179 18.08V20.32C93.5445 20.32 93.5579 20.32 93.5579 20.32H111.198V30H77.3179C77.3179 28.4267 77.3179 26.8533 77.3179 25.28C77.3179 23.68 77.3179 22.0933 77.3179 20.52C77.3179 18.9467 77.3179 17.3733 77.3179 15.8C77.3179 14.2 77.3179 12.6133 77.3179 11.04C77.3179 9.44 77.3179 7.85333 77.3179 6.28C77.3179 5.24 77.3179 4.2 77.3179 3.16C77.3179 2.09333 77.3179 1.04 77.3179 0H110.958V10.08Z" fill="white"/>
<path d="M160.908 0C160.908 2 160.908 4 160.908 6C160.908 8 160.908 10 160.908 12C160.908 14 160.908 16 160.908 18C160.908 20 160.908 22 160.908 24C160.908 26 160.908 28 160.908 30H145.508C145.508 27.2267 145.508 24.4533 145.508 21.68C145.508 18.9067 145.508 16.1333 145.508 13.36C145.508 13.3333 145.495 13.32 145.468 13.32C145.468 13.32 145.455 13.32 145.428 13.32C145.428 13.32 145.428 13.3333 145.428 13.36L141.508 30H131.308C130.642 27.2267 129.988 24.4667 129.348 21.72C128.708 18.9733 128.055 16.2267 127.388 13.48C127.388 13.4533 127.375 13.44 127.348 13.44C127.348 13.44 127.335 13.44 127.308 13.44C127.308 13.44 127.308 13.4533 127.308 13.48C127.308 16.2267 127.308 18.9733 127.308 21.72C127.308 24.4667 127.308 27.2267 127.308 30H112.708C112.708 28 112.708 26 112.708 24C112.708 21.9733 112.708 19.96 112.708 17.96C112.708 15.9333 112.708 13.92 112.708 11.92C112.708 9.89334 112.708 7.88 112.708 5.88C112.708 4.89333 112.708 3.92 112.708 2.96C112.708 1.97333 112.708 0.986667 112.708 0H134.028C134.428 1.65333 134.815 3.30667 135.188 4.96C135.562 6.58667 135.935 8.22667 136.308 9.88C136.708 11.5333 137.095 13.1867 137.468 14.84C137.468 14.8667 137.468 14.8933 137.468 14.92C137.495 14.92 137.508 14.92 137.508 14.92C137.535 14.8933 137.548 14.8667 137.548 14.84L140.748 0H160.908Z" fill="white"/>
</svg>
