<svg width="190" height="37" viewBox="0 0 190 37" fill="none" xmlns="http://www.w3.org/2000/svg">
<path d="M14.1133 25.4506C12.8544 25.4506 11.8215 25.3618 11.0145 25.1843C10.2236 25.0067 9.57804 24.6678 9.07771 24.1675C8.72263 23.8124 8.38369 23.6348 8.06089 23.6348C7.77038 23.6348 7.52021 23.7398 7.31039 23.9496C7.10057 24.1594 6.99566 24.4096 6.99566 24.7001C6.99566 24.7808 7.0118 24.9018 7.04408 25.0632C7.0925 25.2085 7.1732 25.3941 7.28618 25.6201C7.68968 26.3463 7.78652 27.1614 7.5767 28.0652C7.36688 28.9691 7.0925 29.8729 6.75356 30.7767L4.96204 35.4734H-0.000976562L13.9439 0.611309H19.2216L33.1665 35.4734H28.2035L26.4119 30.7767C26.073 29.8729 25.7986 28.9691 25.5888 28.0652C25.379 27.1614 25.4758 26.3463 25.8793 25.6201C26.0084 25.3941 26.0891 25.2085 26.1214 25.0632C26.1537 24.9018 26.1698 24.7808 26.1698 24.7001C26.1698 24.4096 26.0649 24.1594 25.8551 23.9496C25.6453 23.7398 25.3951 23.6348 25.1046 23.6348C24.7818 23.6348 24.4429 23.8124 24.0878 24.1675C23.5875 24.6678 22.9338 25.0067 22.1268 25.1843C21.3359 25.3618 20.3111 25.4506 19.0522 25.4506H14.1133ZM17.5027 21.577C18.8423 21.577 19.9076 21.7061 20.6984 21.9644C21.5054 22.2065 22.1349 22.5131 22.5868 22.8843C22.732 22.9973 22.8854 23.1184 23.0468 23.2475C23.2243 23.3605 23.4261 23.417 23.652 23.417C23.9587 23.417 24.2088 23.3201 24.4025 23.1264C24.6123 22.9328 24.7172 22.6826 24.7172 22.3759C24.7172 22.2145 24.6688 22.0289 24.572 21.8191C24.4913 21.6093 24.2895 21.3833 23.9667 21.1412C23.3696 20.6732 22.7966 19.9953 22.2478 19.1076C21.7152 18.2038 21.2472 17.2273 20.8437 16.1782L18.5195 10.1016C17.8901 8.47143 17.5511 7.2448 17.5027 6.42167C17.4543 5.58239 17.5915 4.9368 17.9143 4.48488C18.1564 4.11366 18.2774 3.75052 18.2774 3.39544C18.2774 2.92738 18.108 2.53195 17.769 2.20916C17.4462 1.87022 17.0508 1.70075 16.5828 1.70075C16.1308 1.70075 15.7354 1.87022 15.3965 2.20916C15.0575 2.53195 14.8881 2.92738 14.8881 3.39544C14.8881 3.75052 15.001 4.09752 15.227 4.43646C15.5498 4.92066 15.687 5.58239 15.6386 6.42167C15.6063 7.2448 15.2754 8.47143 14.646 10.1016L12.3218 16.1782C11.9183 17.2273 11.4503 18.2038 10.9177 19.1076C10.385 20.0114 9.81207 20.6893 9.19876 21.1412C8.8921 21.3833 8.69035 21.6093 8.59351 21.8191C8.49667 22.0289 8.44825 22.2145 8.44825 22.3759C8.44825 22.6826 8.54509 22.9328 8.73877 23.1264C8.94859 23.3201 9.20683 23.417 9.51348 23.417C9.73944 23.417 9.93312 23.3605 10.0945 23.2475C10.2721 23.1184 10.4335 22.9973 10.5787 22.8843C11.0306 22.5131 11.652 22.2065 12.4429 21.9644C13.2499 21.7061 14.3232 21.577 15.6628 21.577H17.5027Z" fill="black"/>
<path d="M37.0284 35.4734V0.611309H46.9545C47.8906 0.611309 48.9558 0.643589 50.1502 0.708148C51.3606 0.756568 52.5711 0.917967 53.7816 1.19234C55.0083 1.46672 56.138 1.92671 57.171 2.5723C58.2039 3.2179 59.0352 4.11366 59.6646 5.25959C60.2941 6.40553 60.6088 7.8904 60.6088 9.7142C60.6088 11.9092 60.052 13.6685 58.9383 14.9919C57.8408 16.3154 56.3317 17.195 54.4111 17.6308C56.9773 18.0989 58.8092 19.0673 59.9067 20.536C61.0042 22.0047 61.553 23.7801 61.553 25.8622C61.553 27.7667 61.1818 29.3322 60.4393 30.5589C59.6969 31.7693 58.7366 32.7135 57.5584 33.3914C56.3963 34.0693 55.1454 34.5535 53.8058 34.844C52.4824 35.1345 51.2073 35.312 49.9807 35.3766C48.7702 35.4412 47.7614 35.4734 46.9545 35.4734H37.0284ZM40.902 17.7277C41.128 17.7277 41.3216 17.6712 41.483 17.5582C41.6606 17.4291 41.822 17.308 41.9672 17.195C42.4191 16.8238 43.0405 16.5172 43.8314 16.2751C44.6384 16.0168 45.7117 15.8877 47.0513 15.8877C47.826 15.8877 48.7137 15.8554 49.7144 15.7909C50.715 15.7263 51.6834 15.5246 52.6195 15.1856C53.5718 14.8467 54.3546 14.2818 54.9679 13.4909C55.5974 12.6839 55.9121 11.5541 55.9121 10.1016C55.9121 8.61669 55.5893 7.4869 54.9437 6.71218C54.3142 5.93747 53.5234 5.39678 52.5711 5.09013C51.6189 4.76733 50.6343 4.58979 49.6175 4.55751C48.6169 4.50909 47.7372 4.48488 46.9787 4.48488C46.5267 4.48488 45.8327 4.40418 44.8966 4.24278C43.9605 4.08138 42.9437 3.53263 41.8462 2.59651C41.7171 2.48354 41.5557 2.36249 41.362 2.23337C41.1683 2.08811 40.9181 2.01548 40.6115 2.01548C40.208 2.01548 39.861 2.16074 39.5705 2.45126C39.2799 2.72563 39.1347 3.07264 39.1347 3.49228C39.1347 3.76666 39.1992 4.00068 39.3284 4.19436C39.4575 4.3719 39.6512 4.58172 39.9094 4.82382C40.5227 5.42099 40.9585 6.14729 41.2167 7.0027C41.4911 7.84198 41.6283 8.77809 41.6283 9.81104V10.5131C41.6283 12.9018 41.2087 14.5965 40.3694 15.5972C40.2564 15.7424 40.1354 15.9038 40.0062 16.0814C39.8933 16.2428 39.8368 16.4445 39.8368 16.6866C39.8368 16.9933 39.9336 17.2435 40.1273 17.4371C40.3371 17.6308 40.5953 17.7277 40.902 17.7277ZM40.6115 34.0693C40.9181 34.0693 41.1683 34.0047 41.362 33.8756C41.5557 33.7303 41.7171 33.6012 41.8462 33.4882C42.9437 32.536 43.9524 31.9872 44.8724 31.842C45.8085 31.6806 46.5025 31.5999 46.9545 31.5999C47.9874 31.5999 49.0688 31.5676 50.1986 31.503C51.3284 31.4223 52.3855 31.2125 53.3701 30.8736C54.3546 30.5185 55.1535 29.9375 55.7668 29.1305C56.3963 28.3235 56.711 27.1856 56.711 25.7169C56.711 24.232 56.3882 23.0861 55.7426 22.2791C55.1132 21.456 54.2981 20.8669 53.2974 20.5118C52.3129 20.1567 51.2638 19.9469 50.1502 19.8823C49.0365 19.8016 48.0035 19.7613 47.0513 19.7613C45.7117 19.7613 44.6384 19.6322 43.8314 19.3739C43.0405 19.1157 42.4191 18.809 41.9672 18.4539C41.822 18.3248 41.6606 18.2038 41.483 18.0908C41.3216 17.9778 41.128 17.9213 40.902 17.9213C40.5953 17.9213 40.3371 18.0182 40.1273 18.2118C39.9336 18.4055 39.8368 18.6557 39.8368 18.9624C39.8368 19.2045 39.8933 19.4143 40.0062 19.5918C40.1354 19.7532 40.2564 19.9065 40.3694 20.0518C41.2087 21.0525 41.6283 22.7229 41.6283 25.0632V26.2737C41.6283 27.3067 41.4911 28.2428 41.2167 29.0821C40.9585 29.9213 40.5227 30.6476 39.9094 31.2609C39.6512 31.503 39.4575 31.7209 39.3284 31.9146C39.1992 32.0921 39.1347 32.3181 39.1347 32.5925C39.1347 32.996 39.2799 33.343 39.5705 33.6335C39.861 33.924 40.208 34.0693 40.6115 34.0693Z" fill="black"/>
<path d="M67.3759 35.4734V0.611309H71.9758V26.2737C71.9758 27.3067 71.8386 28.2428 71.5642 29.0821C71.306 29.9213 70.8702 30.6476 70.2569 31.2609C69.9986 31.503 69.805 31.7209 69.6758 31.9146C69.5467 32.0921 69.4822 32.3181 69.4822 32.5925C69.4822 32.996 69.6274 33.343 69.918 33.6335C70.2085 33.924 70.5555 34.0693 70.959 34.0693C71.2656 34.0693 71.5158 34.0047 71.7095 33.8756C71.9032 33.7303 72.0646 33.6012 72.1937 33.4882C73.2912 32.536 74.2999 31.9872 75.2199 31.842C76.156 31.6806 76.85 31.5999 77.3019 31.5999H89.31V35.4734H67.3759Z" fill="black"/>
<path d="M93.0267 35.4734V0.611309H114.622V4.48488H102.953C102.501 4.48488 101.807 4.40418 100.871 4.24278C99.9507 4.08138 98.942 3.53263 97.8445 2.59651C97.7153 2.48354 97.5539 2.36249 97.3603 2.23337C97.1666 2.08811 96.9164 2.01548 96.6098 2.01548C96.2063 2.01548 95.8593 2.16074 95.5687 2.45126C95.2782 2.72563 95.133 3.07264 95.133 3.49228C95.133 3.76666 95.1975 4.00068 95.3266 4.19436C95.4558 4.3719 95.6494 4.58172 95.9077 4.82382C96.521 5.42099 96.9568 6.14729 97.215 7.0027C97.4894 7.84198 97.6266 8.77809 97.6266 9.81104V10.4405C97.6266 12.9745 97.1262 14.7418 96.1256 15.7424C95.9319 15.9361 95.835 16.1863 95.835 16.493C95.835 16.7996 95.9319 17.0498 96.1256 17.2435C96.3677 17.4533 96.6178 17.5582 96.8761 17.5582C97.1666 17.5582 97.4167 17.4533 97.6266 17.2435C98.6272 16.2428 100.403 15.7424 102.953 15.7424H113.847V19.616H102.953C100.403 19.616 98.6272 19.1157 97.6266 18.115C97.4329 17.9052 97.1827 17.8003 96.8761 17.8003C96.5855 17.8003 96.3354 17.9052 96.1256 18.115C95.9157 18.3248 95.8108 18.575 95.8108 18.8655C95.8108 19.1238 95.9157 19.3739 96.1256 19.616C97.1262 20.6167 97.6266 22.4001 97.6266 24.9664V26.2737C97.6266 27.3067 97.4894 28.2428 97.215 29.0821C96.9568 29.9213 96.521 30.6476 95.9077 31.2609C95.6494 31.503 95.4558 31.7209 95.3266 31.9146C95.1975 32.0921 95.133 32.3181 95.133 32.5925C95.133 32.996 95.2782 33.343 95.5687 33.6335C95.8593 33.924 96.2063 34.0693 96.6098 34.0693C96.9164 34.0693 97.1666 34.0047 97.3603 33.8756C97.5539 33.7303 97.7153 33.6012 97.8445 33.4882C98.942 32.536 99.9507 31.9872 100.871 31.842C101.807 31.6806 102.501 31.5999 102.953 31.5999H115.445V35.4734H93.0267Z" fill="black"/>
<path d="M124.173 35.8124C123.189 35.8124 122.357 35.4734 121.68 34.7956C121.002 34.1016 120.663 33.2704 120.663 32.302C120.663 31.3174 121.002 30.4862 121.68 29.8084C122.357 29.1143 123.189 28.7673 124.173 28.7673C125.158 28.7673 125.989 29.1143 126.667 29.8084C127.345 30.4862 127.684 31.3174 127.684 32.302C127.684 33.2704 127.345 34.1016 126.667 34.7956C125.989 35.4734 125.158 35.8124 124.173 35.8124Z" fill="black"/>
<path d="M145.636 9.81104V35.4734H141.036V9.81104C141.036 8.71353 141.157 7.74514 141.399 6.90586C141.641 6.05045 142.036 5.34836 142.585 4.79961C142.795 4.58979 142.956 4.39611 143.069 4.21857C143.199 4.04103 143.263 3.82315 143.263 3.56491C143.263 3.19369 143.134 2.88703 142.876 2.64493C142.617 2.3867 142.303 2.25758 141.932 2.25758C141.673 2.25758 141.447 2.32214 141.254 2.45126C141.06 2.58037 140.899 2.70142 140.769 2.8144C139.898 3.52456 139.026 3.98454 138.155 4.19436C137.299 4.38804 136.484 4.48488 135.71 4.48488H128.834V0.611309H157.813V4.48488H150.962C150.187 4.48488 149.364 4.38804 148.492 4.19436C147.637 3.98454 146.773 3.52456 145.902 2.8144C145.773 2.70142 145.611 2.58037 145.418 2.45126C145.24 2.32214 145.014 2.25758 144.74 2.25758C144.369 2.25758 144.054 2.3867 143.796 2.64493C143.537 2.88703 143.408 3.19369 143.408 3.56491C143.408 3.82315 143.465 4.04103 143.578 4.21857C143.707 4.39611 143.876 4.58979 144.086 4.79961C144.651 5.34836 145.047 6.05045 145.272 6.90586C145.515 7.74514 145.636 8.71353 145.636 9.81104Z" fill="black"/>
<path d="M174.071 0.0302734C177.282 0.0302734 180.083 0.772708 182.471 2.25758C184.86 3.74245 186.708 5.83256 188.015 8.52792C189.339 11.2233 190.001 14.3867 190.001 18.0182C190.017 21.6496 189.363 24.8131 188.04 27.5084C186.732 30.2038 184.884 32.302 182.496 33.803C180.107 35.2878 177.299 36.0303 174.071 36.0303C170.875 36.0303 168.083 35.2878 165.694 33.803C163.305 32.302 161.449 30.2038 160.126 27.5084C158.818 24.8131 158.165 21.6496 158.165 18.0182C158.165 14.3867 158.818 11.2233 160.126 8.52792C161.449 5.83256 163.305 3.74245 165.694 2.25758C168.083 0.772708 170.875 0.0302734 174.071 0.0302734ZM174.071 3.90384C170.617 3.90384 167.889 5.16276 165.888 7.68058C163.902 10.1823 162.91 13.6281 162.91 18.0182C162.91 22.4082 163.902 25.8622 165.888 28.38C167.889 30.8978 170.617 32.1567 174.071 32.1567C177.541 32.1567 180.268 30.8978 182.253 28.38C184.255 25.8622 185.255 22.4082 185.255 18.0182C185.255 13.6281 184.255 10.1823 182.253 7.68058C180.268 5.16276 177.541 3.90384 174.071 3.90384Z" fill="black"/>
</svg>
