<svg width="161" height="30" viewBox="0 0 161 30" fill="none" xmlns="http://www.w3.org/2000/svg">
<path d="M0 0H31.48C33.2667 0 34.7467 0.346667 35.92 1.04C37.0933 1.70667 37.9733 2.57333 38.56 3.64C39.1733 4.70667 39.48 5.82667 39.48 7C39.48 8.17333 39.1733 9.32 38.56 10.44C37.9467 11.5333 37.0133 12.4267 35.76 13.12C34.5333 13.8133 32.9867 14.16 31.12 14.16C31.12 14.16 31.1067 14.16 31.08 14.16C31.08 14.16 31.08 14.1733 31.08 14.2C31.1067 14.2 31.12 14.2 31.12 14.2C33.28 14.2 35.0667 14.5867 36.48 15.36C37.8933 16.1333 38.9467 17.12 39.64 18.32C40.3333 19.52 40.68 20.7867 40.68 22.12C40.68 23.1067 40.48 24.0667 40.08 25C39.7067 25.9333 39.1333 26.7867 38.36 27.56C37.5867 28.3067 36.6267 28.9067 35.48 29.36C34.3333 29.7867 33 30 31.48 30H0C0 28.1867 0 26.3867 0 24.6C0 22.7867 0 20.9733 0 19.16C0 17.3467 0 15.5467 0 13.76C0 11.9467 0 10.1333 0 8.32C0 6.93333 0 5.54667 0 4.16C0 2.77333 0 1.38667 0 0ZM15.76 15.76C15.76 16.0533 15.76 16.3467 15.76 16.64C15.76 16.9333 15.76 17.2267 15.76 17.52C15.76 17.7333 15.76 17.9467 15.76 18.16C15.76 18.3467 15.76 18.5333 15.76 18.72C15.76 18.9067 15.76 19.0933 15.76 19.28C15.76 19.3067 15.76 19.32 15.76 19.32C15.76 19.32 15.7733 19.32 15.8 19.32H21.48C22.2 19.32 22.7333 19.1333 23.08 18.76C23.4533 18.3867 23.64 17.96 23.64 17.48C23.64 17.24 23.6 17.0267 23.52 16.84C23.44 16.6267 23.32 16.44 23.16 16.28C23.0267 16.0933 22.84 15.96 22.6 15.88C22.3867 15.7733 22.1333 15.72 21.84 15.72H15.8C15.8 15.72 15.7867 15.7333 15.76 15.76ZM15.8 10.12C15.7733 10.12 15.76 10.1333 15.76 10.16C15.76 10.32 15.76 10.5067 15.76 10.72C15.76 10.9067 15.76 11.1067 15.76 11.32C15.76 11.5067 15.76 11.7067 15.76 11.92C15.76 12.2133 15.76 12.52 15.76 12.84C15.76 13.1333 15.76 13.4133 15.76 13.68C15.76 13.7067 15.76 13.72 15.76 13.72C15.76 13.72 15.7733 13.72 15.8 13.72H21.28C21.76 13.72 22.16 13.64 22.48 13.48C22.8 13.2933 23.04 13.0667 23.2 12.8C23.36 12.5067 23.44 12.2 23.44 11.88C23.44 11.4267 23.28 11.0267 22.96 10.68C22.6667 10.3067 22.2267 10.12 21.64 10.12H15.8Z" fill="black"/>
<path d="M75.4759 10.08H58.0759C58.0493 10.08 58.0359 10.08 58.0359 10.08V12.28C58.0359 12.3067 58.0359 12.3333 58.0359 12.36C58.0626 12.36 58.0759 12.36 58.0759 12.36H74.8759V18H58.0759C58.0759 18 58.0626 18 58.0359 18C58.0359 18 58.0359 18.0133 58.0359 18.04C58.0359 18.04 58.0359 18.0533 58.0359 18.08V20.32C58.0626 20.32 58.0759 20.32 58.0759 20.32H75.7159V30H41.8359C41.8359 28.4267 41.8359 26.8533 41.8359 25.28C41.8359 23.68 41.8359 22.0933 41.8359 20.52C41.8359 18.9467 41.8359 17.3733 41.8359 15.8C41.8359 14.2 41.8359 12.6133 41.8359 11.04C41.8359 9.44 41.8359 7.85333 41.8359 6.28C41.8359 5.24 41.8359 4.2 41.8359 3.16C41.8359 2.09333 41.8359 1.04 41.8359 0H75.4759V10.08Z" fill="black"/>
<path d="M110.867 10.08H93.4666C93.4399 10.08 93.4266 10.08 93.4266 10.08V12.28C93.4266 12.3067 93.4266 12.3333 93.4266 12.36C93.4532 12.36 93.4666 12.36 93.4666 12.36H110.267V18H93.4666C93.4666 18 93.4532 18 93.4266 18C93.4266 18 93.4266 18.0133 93.4266 18.04C93.4266 18.04 93.4266 18.0533 93.4266 18.08V20.32C93.4532 20.32 93.4666 20.32 93.4666 20.32H111.107V30H77.2266C77.2266 28.4267 77.2266 26.8533 77.2266 25.28C77.2266 23.68 77.2266 22.0933 77.2266 20.52C77.2266 18.9467 77.2266 17.3733 77.2266 15.8C77.2266 14.2 77.2266 12.6133 77.2266 11.04C77.2266 9.44 77.2266 7.85333 77.2266 6.28C77.2266 5.24 77.2266 4.2 77.2266 3.16C77.2266 2.09333 77.2266 1.04 77.2266 0H110.867V10.08Z" fill="black"/>
<path d="M160.817 0C160.817 2 160.817 4 160.817 6C160.817 8 160.817 10 160.817 12C160.817 14 160.817 16 160.817 18C160.817 20 160.817 22 160.817 24C160.817 26 160.817 28 160.817 30H145.417C145.417 27.2267 145.417 24.4533 145.417 21.68C145.417 18.9067 145.417 16.1333 145.417 13.36C145.417 13.3333 145.404 13.32 145.377 13.32C145.377 13.32 145.364 13.32 145.337 13.32C145.337 13.32 145.337 13.3333 145.337 13.36L141.417 30H131.217C130.551 27.2267 129.897 24.4667 129.257 21.72C128.617 18.9733 127.964 16.2267 127.297 13.48C127.297 13.4533 127.284 13.44 127.257 13.44C127.257 13.44 127.244 13.44 127.217 13.44C127.217 13.44 127.217 13.4533 127.217 13.48C127.217 16.2267 127.217 18.9733 127.217 21.72C127.217 24.4667 127.217 27.2267 127.217 30H112.617C112.617 28 112.617 26 112.617 24C112.617 21.9733 112.617 19.96 112.617 17.96C112.617 15.9333 112.617 13.92 112.617 11.92C112.617 9.89334 112.617 7.88 112.617 5.88C112.617 4.89333 112.617 3.92 112.617 2.96C112.617 1.97333 112.617 0.986667 112.617 0H133.937C134.337 1.65333 134.724 3.30667 135.097 4.96C135.471 6.58667 135.844 8.22667 136.217 9.88C136.617 11.5333 137.004 13.1867 137.377 14.84C137.377 14.8667 137.377 14.8933 137.377 14.92C137.404 14.92 137.417 14.92 137.417 14.92C137.444 14.8933 137.457 14.8667 137.457 14.84L140.657 0H160.817Z" fill="black"/>
</svg>
