<svg width="125" height="36" viewBox="0 0 125 36" fill="none" xmlns="http://www.w3.org/2000/svg">
<path d="M5.38147 28.7064C7.09762 28.7064 8.52773 28.7844 9.67183 28.9404C10.2439 29.0184 10.7639 29.1094 11.232 29.2134C11.726 29.3434 12.194 29.4735 12.6361 29.6035C13.0781 29.7335 13.4941 29.8635 13.8842 29.9935C14.3002 30.1495 14.6902 30.3055 15.0543 30.4615C15.4183 30.6176 15.8083 30.7606 16.2244 30.8906C16.6664 31.0466 17.1345 31.1896 17.6285 31.3196C18.0965 31.4496 18.6036 31.5666 19.1496 31.6706C19.7217 31.7746 20.3457 31.8657 21.0218 31.9437C21.6718 32.0217 22.3999 32.0867 23.206 32.1387C24.038 32.1907 24.9481 32.2167 25.9362 32.2167V36C23.96 36 22.3349 35.922 21.0608 35.766C19.7607 35.61 18.6426 35.415 17.7065 35.1809C16.7184 34.9469 15.8603 34.6739 15.1323 34.3619C14.7423 34.2059 14.3392 34.0498 13.9232 33.8938C13.5332 33.7638 13.1171 33.6338 12.6751 33.5038C12.233 33.3738 11.752 33.2568 11.232 33.1528C10.7379 33.0488 10.2049 32.9447 9.63283 32.8407C9.06078 32.7367 8.41073 32.6587 7.68266 32.6067C6.98061 32.5547 6.21354 32.5027 5.38147 32.4507V28.7064ZM13.1431 28.0433C10.9589 28.0433 9.04778 27.7053 7.40964 27.0293C5.7715 26.3272 4.39339 25.3521 3.2753 24.104C2.18321 22.8559 1.36414 21.3738 0.818092 19.6576C0.272046 17.9415 -0.000976562 16.0563 -0.000976562 14.0022V12.9491C-0.000976562 11.0509 0.324051 9.30878 0.974105 7.72264C1.62416 6.11051 2.52123 4.74539 3.66533 3.6273C4.83543 2.48321 6.22654 1.59913 7.83868 0.97508C9.45081 0.325027 11.219 0 13.1431 0C15.0673 0 16.8354 0.325027 18.4476 0.97508C20.0597 1.59913 21.4508 2.48321 22.6209 3.6273C23.791 4.74539 24.7011 6.11051 25.3511 7.72264C26.0012 9.30878 26.3262 11.0509 26.3262 12.9491V14.0022C26.3262 16.0563 26.0402 17.9415 25.4681 19.6576C24.9221 21.3738 24.103 22.8559 23.0109 24.104C21.9189 25.3521 20.5407 26.3272 18.8766 27.0293C17.2385 27.7053 15.3273 28.0433 13.1431 28.0433ZM13.1431 4.09534C10.2829 4.09534 8.1377 4.90141 6.70758 6.51354C5.27746 8.12568 4.5624 10.2969 4.5624 13.0271V13.9242C4.5624 15.3543 4.70542 16.6804 4.99144 17.9025C5.27746 19.1246 5.7455 20.1907 6.39556 21.1008C7.07161 21.9848 7.95569 22.6869 9.04778 23.2069C10.1399 23.701 11.479 23.948 13.0651 23.948C14.7293 23.948 16.1074 23.714 17.1995 23.2459C18.3176 22.7519 19.2146 22.0628 19.8907 21.1788C20.5667 20.2947 21.0478 19.2416 21.3338 18.0195C21.6198 16.7714 21.7628 15.4063 21.7628 13.9242V13.0271C21.7628 10.2969 21.0348 8.12568 19.5787 6.51354C18.1225 4.90141 15.9774 4.09534 13.1431 4.09534Z" fill="white"/>
<path d="M37.1356 28.0433C34.6914 28.0433 32.8322 27.4583 31.5581 26.2882C30.284 25.1181 29.647 23.3109 29.647 20.8667V8.65872L33.8983 7.44962V19.9697C33.8983 20.6457 33.9243 21.2438 33.9763 21.7638C34.0543 22.2839 34.2104 22.7389 34.4444 23.1289C34.6784 23.493 35.0034 23.779 35.4195 23.987C35.8615 24.169 36.4335 24.26 37.1356 24.26C37.6816 24.26 38.1887 24.169 38.6567 23.987C39.1248 23.805 39.5668 23.571 39.9828 23.2849C40.4249 22.9729 40.8279 22.6349 41.1919 22.2709C41.582 21.9068 41.946 21.5298 42.284 21.1398V8.65872L46.5354 7.44962V23.0899C46.5354 24.078 46.6264 24.8841 46.8084 25.5081C46.8864 25.8202 46.9904 26.1582 47.1204 26.5222C47.2765 26.8602 47.4585 27.2113 47.6665 27.5753H43.1811C42.9731 27.2633 42.8041 26.8992 42.6741 26.4832C42.5441 26.0412 42.479 25.6381 42.479 25.2741C41.725 26.0542 40.9189 26.7172 40.0608 27.2633C39.2288 27.7833 38.2537 28.0433 37.1356 28.0433Z" fill="white"/>
<path d="M57.5956 24.26C58.0636 24.26 58.5836 24.169 59.1557 23.987C59.7277 23.779 60.2998 23.532 60.8718 23.2459C61.4439 22.9599 61.9899 22.6609 62.51 22.3489C63.056 22.0108 63.537 21.7248 63.9531 21.4908V19.4626H57.1275C56.2954 19.4626 55.6584 19.6836 55.2164 20.1257C54.8003 20.5677 54.5923 21.2048 54.5923 22.0368C54.5923 22.9469 54.8783 23.545 55.4504 23.831C56.0224 24.117 56.7375 24.26 57.5956 24.26ZM59.8967 7.44962C60.9888 7.44962 62.0289 7.60563 63.017 7.91766C64.0311 8.22969 64.9152 8.69773 65.6692 9.32178C66.4493 9.91983 67.0603 10.6609 67.5024 11.545C67.9704 12.429 68.2044 13.4431 68.2044 14.5872V23.0899C68.2044 23.974 68.2824 24.7541 68.4385 25.4301C68.6205 26.0802 68.9195 26.7952 69.3355 27.5753H64.8502C64.6421 27.2893 64.4861 26.9252 64.3821 26.4832C64.2781 26.0412 64.2001 25.6381 64.1481 25.2741C63.082 26.0542 61.9769 26.7172 60.8328 27.2633C59.7147 27.7833 58.4926 28.0433 57.1665 28.0433C56.2824 28.0433 55.4244 27.9003 54.5923 27.6143C53.7862 27.3283 53.0712 26.9252 52.4471 26.4052C51.8231 25.8592 51.316 25.2221 50.926 24.494C50.562 23.74 50.3799 22.9079 50.3799 21.9978C50.3799 21.0358 50.549 20.1647 50.887 19.3846C51.225 18.6046 51.6931 17.9415 52.2911 17.3954C52.9152 16.8494 53.6302 16.4334 54.4363 16.1473C55.2684 15.8613 56.1524 15.7183 57.0885 15.7183H63.9531V15.2503C63.9531 13.8202 63.6021 12.7931 62.9 12.169C62.2239 11.545 61.2229 11.2199 59.8967 11.1939C58.7006 11.1939 57.6476 11.3239 56.7375 11.584C55.8534 11.818 54.9173 12.195 53.9292 12.7151L52.0961 9.5558C53.3702 8.82773 54.6183 8.29469 55.8404 7.95666C57.0625 7.61863 58.4146 7.44962 59.8967 7.44962Z" fill="white"/>
<path d="M78.3285 27.5753L71.1519 8.50271L75.0132 7.44962L79.5376 19.4236L80.3567 23.2459L81.1367 19.4236L85.6611 7.44962L89.5225 8.50271L82.3459 27.5753H78.3285Z" fill="white"/>
<path d="M95.6767 19.0726C95.6767 19.8267 95.7677 20.5287 95.9498 21.1788C96.1578 21.8028 96.4828 22.3489 96.9248 22.8169C97.3929 23.2589 98.0039 23.61 98.758 23.87C99.5121 24.13 100.448 24.26 101.566 24.26C102.554 24.26 103.321 24.117 103.867 23.831C104.413 23.545 104.999 23.1029 105.623 22.5049L109.133 23.948C108.301 25.3521 107.196 26.3922 105.818 27.0683C104.439 27.7183 102.957 28.0433 101.371 28.0433C98.1209 28.0433 95.6507 27.1983 93.9606 25.5081C92.2705 23.818 91.4254 21.3218 91.4254 18.0195V17.5905C91.4254 17.2524 91.4254 16.9274 91.4254 16.6154C91.4254 16.3034 91.4384 16.0043 91.4644 15.7183C91.5164 14.4702 91.8024 13.3391 92.3225 12.325C92.8425 11.3109 93.5316 10.4399 94.3896 9.71181C95.2477 8.98375 96.2358 8.4247 97.3539 8.03467C98.472 7.64464 99.6551 7.44962 100.903 7.44962C102.333 7.44962 103.607 7.68364 104.725 8.15168C105.844 8.59372 106.793 9.23077 107.573 10.0628C108.353 10.8689 108.938 11.857 109.328 13.0271C109.744 14.1712 109.952 15.4453 109.952 16.8494V19.0726H95.6767ZM95.6767 15.4453H105.701C105.701 14.8212 105.584 14.2492 105.35 13.7291C105.116 13.2091 104.777 12.7671 104.335 12.403C103.919 12.039 103.412 11.753 102.814 11.545C102.242 11.3369 101.605 11.2329 100.903 11.2329C100.253 11.2329 99.6161 11.3109 98.992 11.467C98.368 11.623 97.8089 11.883 97.3149 12.247C96.8208 12.585 96.4178 13.0271 96.1058 13.5731C95.8197 14.0932 95.6767 14.7172 95.6767 15.4453Z" fill="white"/>
<path d="M117.629 9.90683C118.123 9.12676 118.695 8.52871 119.345 8.11268C119.995 7.67064 120.801 7.44962 121.763 7.44962C122.777 7.44962 123.856 7.73564 125 8.30769L123.518 12.247C122.868 11.857 122.231 11.662 121.607 11.662C120.775 11.662 120.099 11.896 119.579 12.364C119.059 12.8061 118.656 13.3781 118.37 14.0802C118.084 14.7562 117.889 15.4843 117.785 16.2644C117.681 17.0444 117.629 17.7465 117.629 18.3705V27.5753H113.378V12.7541C113.378 12.052 113.326 11.428 113.221 10.8819C113.117 10.3099 112.922 9.75081 112.636 9.20477L116.459 7.44962C116.667 7.83965 116.849 8.24269 117.005 8.65872C117.187 9.04875 117.317 9.46479 117.395 9.90683H117.629Z" fill="white"/>
</svg>
