<svg width="159" height="32" viewBox="0 0 159 32" fill="none" xmlns="http://www.w3.org/2000/svg">
<path d="M45.7705 1C45.7705 1.55229 46.2182 2 46.7705 2H47.7705C48.3228 2 48.7705 1.55229 48.7705 1C48.7705 0.447718 48.3228 2.79753e-06 47.7705 2.79753e-06H46.7705C46.2182 2.79753e-06 45.7705 0.447718 45.7705 1Z" fill="white"/>
<path d="M16.7705 32H21.6283L20.2141 30.5858C19.8391 30.2107 19.3303 30 18.7999 30H16.7705C9.03851 30 2.77051 23.732 2.77051 16C2.77051 8.268 9.03851 2.00001 16.7705 2H32.7705C40.5025 2 46.7705 8.268 46.7705 16C46.7705 23.732 40.5025 30 32.7705 30H26.7852C25.9895 30 25.2265 29.6839 24.6639 29.1214L23.0071 27.4645C22.0694 26.5268 20.7975 26 19.4715 26H16.7705C11.2476 26 6.77051 21.5229 6.77051 16C6.77051 10.4771 11.2476 6 16.7705 6H32.7705C38.2934 6 42.7705 10.4771 42.7705 16C42.7705 21.5229 38.2934 26 32.7705 26H28.9274C28.1317 26 27.3687 25.6839 26.806 25.1214L25.1491 23.4645C24.2115 22.5268 22.9397 22 21.6136 22H16.7705C13.4568 22 10.7705 19.3137 10.7705 16C10.7705 12.6863 13.4568 10 16.7705 10H32.7705C36.0842 10 38.7705 12.6863 38.7705 16C38.7705 19.2733 36.1493 21.9344 32.8915 21.9988L32.8908 22H31.4274C30.6317 22 29.8687 21.6839 29.306 21.1214L27.6491 19.4645C26.8798 18.695 25.8855 18.2023 24.8207 18.0502L24.7705 18H16.7705C15.6659 18 14.7705 17.1046 14.7705 16C14.7705 14.8954 15.6659 14 16.7705 14H32.7705C33.8751 14 34.7705 14.8954 34.7705 16C34.7705 17.1046 33.8751 18 32.7705 18H28.7705L30.1847 19.4142C30.5598 19.7893 31.0685 20 31.5989 20H32.7705C34.9796 20 36.7705 18.2091 36.7705 16C36.7705 13.7909 34.9796 12 32.7705 12H16.7705C14.5614 12 12.7705 13.7909 12.7705 16C12.7705 18.2091 14.5614 20 16.7705 20H24.1136C24.9093 20 25.6723 20.3161 26.235 20.8786L27.8919 22.5355C28.8295 23.4732 30.1013 24 31.4274 24H33.2705V23.9846C37.4559 23.7266 40.7705 20.2503 40.7705 16C40.7705 11.5818 37.1887 8 32.7705 8H16.7705C12.3523 8 8.77051 11.5818 8.77051 16C8.77051 20.4183 12.3523 24 16.7705 24H21.6136C22.4093 24 23.1723 24.3161 23.735 24.8786L25.3919 26.5355C26.3295 27.4732 27.6013 28 28.9274 28H32.7705C39.3979 28 44.7705 22.6274 44.7705 16C44.7705 9.37256 39.3979 4 32.7705 4H16.7705C10.1431 4 4.77051 9.37256 4.77051 16C4.77051 22.6274 10.1431 28 16.7705 28H19.4715C20.2671 28 21.0302 28.3161 21.5928 28.8786L23.2497 30.5355C24.1874 31.4732 25.4591 32 26.7852 32H32.7705C41.6071 32 48.7705 24.8366 48.7705 16C48.7705 7.16344 41.6071 -7.72516e-07 32.7705 0L16.7705 3.30611e-06C7.93395 4.07863e-06 0.770507 7.16345 0.770508 16C0.770509 24.8366 7.93396 32 16.7705 32Z" fill="white"/>
<path d="M67.5305 9.216H66.6905L61.4105 24H58.9625L65.0105 7.2H69.1625L75.2105 24H72.7625L67.5305 9.216ZM62.0585 17.712H71.8505V19.728H62.0585V17.712Z" fill="white"/>
<path d="M76.8757 6.72H79.1317V24H76.8757V6.72Z" fill="white"/>
<path d="M83.099 12V8.64H85.379V12H88.379V14.016H85.379V19.92C85.379 20.656 85.523 21.176 85.811 21.48C86.115 21.784 86.491 21.96 86.939 22.008C87.403 22.04 87.883 22.024 88.379 21.96V23.904C87.723 24.048 87.075 24.088 86.435 24.024C85.811 23.976 85.243 23.8 84.731 23.496C84.235 23.192 83.835 22.752 83.531 22.176C83.243 21.584 83.099 20.832 83.099 19.92V14.016H81.371V12H83.099Z" fill="white"/>
<path d="M95.8771 24.168C94.7251 24.168 93.7011 23.904 92.8051 23.376C91.9251 22.832 91.2291 22.088 90.7171 21.144C90.2211 20.2 89.9731 19.12 89.9731 17.904C89.9731 16.736 90.2211 15.696 90.7171 14.784C91.2131 13.872 91.8931 13.152 92.7571 12.624C93.6371 12.096 94.6291 11.832 95.7331 11.832C96.8531 11.832 97.8451 12.08 98.7091 12.576C99.5731 13.056 100.245 13.736 100.725 14.616C101.205 15.48 101.437 16.48 101.421 17.616C101.421 17.808 101.413 18.008 101.397 18.216C101.381 18.408 101.357 18.624 101.325 18.864H92.4451C92.4931 19.504 92.6691 20.072 92.9731 20.568C93.2931 21.048 93.6931 21.424 94.1731 21.696C94.6691 21.968 95.2291 22.104 95.8531 22.104C96.6531 22.104 97.3491 21.952 97.9411 21.648C98.5331 21.328 98.9491 20.904 99.1891 20.376L101.157 21.072C100.677 22.048 99.9731 22.808 99.0451 23.352C98.1331 23.896 97.0771 24.168 95.8771 24.168ZM98.9491 16.92C98.9491 16.344 98.8051 15.824 98.5171 15.36C98.2291 14.896 97.8371 14.536 97.3411 14.28C96.8611 14.008 96.3171 13.872 95.7091 13.872C95.1651 13.872 94.6611 14.008 94.1971 14.28C93.7491 14.536 93.3651 14.896 93.0451 15.36C92.7411 15.808 92.5491 16.328 92.4691 16.92H98.9491Z" fill="white"/>
<path d="M103.953 12H106.017L106.161 13.608C106.497 13.192 106.881 12.848 107.313 12.576C107.761 12.288 108.241 12.088 108.753 11.976C109.281 11.864 109.825 11.872 110.385 12V14.136C109.857 14.008 109.345 13.992 108.849 14.088C108.353 14.184 107.905 14.392 107.505 14.712C107.121 15.016 106.809 15.424 106.569 15.936C106.329 16.448 106.209 17.064 106.209 17.784V24H103.953V12Z" fill="white"/>
<path d="M113.199 12V8.64H115.479V12H118.479V14.016H115.479V19.92C115.479 20.656 115.623 21.176 115.911 21.48C116.215 21.784 116.591 21.96 117.039 22.008C117.503 22.04 117.983 22.024 118.479 21.96V23.904C117.823 24.048 117.175 24.088 116.535 24.024C115.911 23.976 115.343 23.8 114.831 23.496C114.335 23.192 113.935 22.752 113.631 22.176C113.343 21.584 113.199 20.832 113.199 19.92V14.016H111.471V12H113.199Z" fill="white"/>
<path d="M128.953 12H131.305L124.345 28.8H122.113L124.225 23.76L119.473 12H121.969L125.449 21.096L128.953 12Z" fill="white"/>
<path d="M135.249 21.96L135.489 21.888V28.8H133.233V12H135.297L135.465 13.8C135.849 13.256 136.377 12.792 137.049 12.408C137.737 12.024 138.569 11.832 139.545 11.832C140.601 11.832 141.537 12.088 142.353 12.6C143.169 13.112 143.809 13.832 144.273 14.76C144.753 15.672 144.993 16.752 144.993 18C144.993 19.232 144.761 20.312 144.297 21.24C143.849 22.168 143.217 22.888 142.401 23.4C141.585 23.912 140.633 24.168 139.545 24.168C138.505 24.168 137.617 23.96 136.881 23.544C136.161 23.112 135.617 22.584 135.249 21.96ZM142.545 18C142.545 16.768 142.217 15.776 141.561 15.024C140.921 14.272 140.081 13.896 139.041 13.896C138.369 13.896 137.769 14.056 137.241 14.376C136.713 14.696 136.289 15.16 135.969 15.768C135.649 16.376 135.489 17.12 135.489 18C135.489 18.864 135.649 19.6 135.969 20.208C136.289 20.816 136.713 21.288 137.241 21.624C137.769 21.944 138.369 22.104 139.041 22.104C140.081 22.104 140.921 21.728 141.561 20.976C142.217 20.224 142.545 19.232 142.545 18Z" fill="white"/>
<path d="M152.685 24.168C151.533 24.168 150.509 23.904 149.613 23.376C148.733 22.832 148.037 22.088 147.525 21.144C147.029 20.2 146.781 19.12 146.781 17.904C146.781 16.736 147.029 15.696 147.525 14.784C148.021 13.872 148.701 13.152 149.565 12.624C150.445 12.096 151.437 11.832 152.541 11.832C153.661 11.832 154.653 12.08 155.517 12.576C156.381 13.056 157.053 13.736 157.533 14.616C158.013 15.48 158.245 16.48 158.229 17.616C158.229 17.808 158.221 18.008 158.205 18.216C158.189 18.408 158.165 18.624 158.133 18.864H149.253C149.301 19.504 149.477 20.072 149.781 20.568C150.101 21.048 150.501 21.424 150.981 21.696C151.477 21.968 152.037 22.104 152.661 22.104C153.461 22.104 154.157 21.952 154.749 21.648C155.341 21.328 155.757 20.904 155.997 20.376L157.965 21.072C157.485 22.048 156.781 22.808 155.853 23.352C154.941 23.896 153.885 24.168 152.685 24.168ZM155.757 16.92C155.757 16.344 155.613 15.824 155.325 15.36C155.037 14.896 154.645 14.536 154.149 14.28C153.669 14.008 153.125 13.872 152.517 13.872C151.973 13.872 151.469 14.008 151.005 14.28C150.557 14.536 150.173 14.896 149.853 15.36C149.549 15.808 149.357 16.328 149.277 16.92H155.757Z" fill="white"/>
</svg>
