<svg width="127" height="36" viewBox="0 0 127 36" fill="none" xmlns="http://www.w3.org/2000/svg">
<path fill-rule="evenodd" clip-rule="evenodd" d="M8.56211 0C3.92292 0 0.162109 3.76081 0.162109 8.4V27.6C0.162109 32.2392 3.92292 36 8.56211 36H27.7621C32.4013 36 36.1621 32.2392 36.1621 27.6V8.4C36.1621 3.76081 32.4013 0 27.7621 0H8.56211ZM7.45557 12.6V7.2L18.2556 12.6V18L7.45557 12.6ZM18.2556 23.4V18L7.45557 23.4V28.8L18.2556 23.4ZM29.0556 18L18.2556 12.6V7.2L29.0556 12.6V18ZM29.0556 18L18.2556 23.4V28.8L29.0556 23.4V18Z" fill="white"/>
<path d="M53.6149 27.4272C51.4453 27.4272 49.5829 26.9568 48.0277 26.016C46.4917 25.056 45.3301 23.76 44.5429 22.128C43.7557 20.496 43.3621 18.6912 43.3621 16.7136C43.3621 14.736 43.7557 12.9312 44.5429 11.2992C45.3301 9.6672 46.4917 8.3808 48.0277 7.44C49.5829 6.48 51.4453 6 53.6149 6C55.2853 6 56.7637 6.3264 58.0501 6.9792C59.3557 7.632 60.4021 8.5344 61.1893 9.6864C61.9957 10.8384 62.5141 12.144 62.7445 13.6032H58.8277C58.6549 12.7776 58.3285 12.0576 57.8485 11.4432C57.3877 10.8096 56.7925 10.32 56.0629 9.9744C55.3333 9.6288 54.5173 9.456 53.6149 9.456C52.2133 9.456 51.0421 9.7824 50.1013 10.4352C49.1797 11.0688 48.4981 11.9328 48.0565 13.0272C47.6149 14.1216 47.3941 15.3504 47.3941 16.7136C47.3941 18.0768 47.6149 19.3056 48.0565 20.4C48.4981 21.4944 49.1797 22.368 50.1013 23.0208C51.0421 23.6544 52.2133 23.9712 53.6149 23.9712C54.5941 23.9712 55.4485 23.7696 56.1781 23.3664C56.9269 22.9632 57.5317 22.416 57.9925 21.7248C58.4725 21.0144 58.7893 20.1984 58.9429 19.2768H62.8309C62.6389 20.832 62.1493 22.2336 61.3621 23.4816C60.5941 24.7104 59.5381 25.68 58.1941 26.3904C56.8693 27.0816 55.3429 27.4272 53.6149 27.4272Z" fill="white"/>
<path d="M69.6921 27.4272C68.0409 27.4272 66.7161 27.0336 65.7177 26.2464C64.7193 25.4592 64.2201 24.3456 64.2201 22.9056C64.2201 22.0224 64.4313 21.2832 64.8537 20.688C65.2761 20.0736 65.9001 19.5744 66.7257 19.1904C67.5705 18.8064 68.6553 18.4992 69.9801 18.2688L74.3289 17.4912V16.6272C74.3289 15.936 74.1081 15.4176 73.6665 15.072C73.2441 14.7264 72.5529 14.5536 71.5929 14.5536C70.6905 14.5536 69.9513 14.7456 69.3753 15.1296C68.8185 15.5136 68.5209 16.0992 68.4825 16.8864H64.9113C64.9305 15.1968 65.5545 13.92 66.7833 13.056C68.0313 12.192 69.6249 11.76 71.5641 11.76C73.6569 11.76 75.2313 12.1536 76.2873 12.9408C77.3433 13.728 77.8713 14.8224 77.8713 16.224V27.0816H74.4441V25.3824C73.8297 26.112 73.1289 26.64 72.3417 26.9664C71.5737 27.2736 70.6905 27.4272 69.6921 27.4272ZM70.4985 24.7488C71.1705 24.7488 71.7945 24.624 72.3705 24.3744C72.9465 24.1248 73.4169 23.7408 73.7817 23.2224C74.1465 22.704 74.3289 22.0512 74.3289 21.264V19.9392L70.6425 20.688C69.6825 20.88 68.9913 21.12 68.5689 21.408C68.1465 21.696 67.9352 22.1568 67.9352 22.7904C67.9352 23.4048 68.1465 23.8848 68.5689 24.2304C69.0105 24.576 69.6537 24.7488 70.4985 24.7488Z" fill="white"/>
<path d="M80.2916 12.1056H83.8052V14.1792C84.3428 13.4304 85.0052 12.8448 85.7924 12.4224C86.5988 11.9808 87.5108 11.76 88.5284 11.76C89.6804 11.76 90.65 12 91.4372 12.48C92.2436 12.96 92.8484 13.6512 93.2516 14.5536C93.6548 15.4368 93.8564 16.464 93.8564 17.6352V27.0816H90.2564V18.0672C90.2564 17.088 90.0164 16.32 89.5364 15.7632C89.0756 15.2064 88.3556 14.928 87.3764 14.928C86.8388 14.928 86.3108 15.0432 85.7924 15.2736C85.274 15.504 84.8324 15.9168 84.4676 16.512C84.1028 17.1072 83.9204 17.8848 83.9204 18.8448V27.0816H80.2916V12.1056Z" fill="white"/>
<path d="M96.6817 12.1056H100.195V14.1792C100.733 13.4304 101.395 12.8448 102.183 12.4224C102.989 11.9808 103.901 11.76 104.919 11.76C106.071 11.76 107.04 12 107.827 12.48C108.634 12.96 109.239 13.6512 109.642 14.5536C110.045 15.4368 110.247 16.464 110.247 17.6352V27.0816H106.646V18.0672C106.646 17.088 106.407 16.32 105.927 15.7632C105.466 15.2064 104.746 14.928 103.767 14.928C103.229 14.928 102.701 15.0432 102.183 15.2736C101.664 15.504 101.222 15.9168 100.858 16.512C100.493 17.1072 100.311 17.8848 100.311 18.8448V27.0816H96.6817V12.1056Z" fill="white"/>
<path d="M112.381 29.8752H114.742C115.184 29.8752 115.529 29.8272 115.779 29.7312C116.048 29.6544 116.259 29.5104 116.413 29.2992C116.566 29.1072 116.729 28.8192 116.902 28.4352L117.363 27.2256L111.689 12.1056H115.577L119.293 23.4528L122.921 12.1056H126.838L120.675 28.7808C120.329 29.6832 119.965 30.4128 119.581 30.9696C119.216 31.5456 118.726 31.9968 118.112 32.3232C117.517 32.6688 116.768 32.8416 115.865 32.8416H112.381V29.8752Z" fill="white"/>
</svg>
