<svg width="174" height="25" viewBox="0 0 174 25" fill="none" xmlns="http://www.w3.org/2000/svg">
<path d="M0.0869141 23.6969H24.6036C28.7369 23.6969 30.9869 21.4469 30.9869 17.2969V15.7969C30.9869 11.6636 28.7369 9.41361 24.6036 9.41361H20.7702V6.76361C20.7702 2.61361 18.5036 0.363606 14.3702 0.363606H0.0869141V5.61361H13.0369C14.6702 5.61361 14.9369 5.86361 14.9369 7.51361V9.41361H0.303581V14.6469H23.2536C24.9036 14.6469 25.1536 14.9136 25.1536 16.5469C25.1536 18.1969 24.9036 18.4469 23.2536 18.4469H0.0869141V23.6969Z" fill="black"/>
<path d="M46.4445 9.41361V14.6469H57.1445V9.41361H46.4445ZM46.2278 23.6969H75.2945V18.4469H46.2278V23.6969ZM46.2278 5.61361H74.8611V0.363606H46.2278V5.61361Z" fill="black"/>
<path d="M122.979 24.0303H125.896V0.363606H120.062V15.5303L96.3124 0.0302734H93.3958V23.6969H99.2291V8.29694L122.979 24.0303Z" fill="black"/>
<path d="M167.529 0.363606H143.279V5.61361H166.179C167.829 5.61361 168.079 5.86361 168.079 7.51361V16.5469C168.079 18.1969 167.829 18.4469 166.179 18.4469H143.279V23.6969H167.529C171.663 23.6969 173.913 21.4469 173.913 17.2969V6.76361C173.913 2.61361 171.663 0.363606 167.529 0.363606Z" fill="black"/>
</svg>
