<svg width="145" height="20" viewBox="0 0 145 20" fill="none" xmlns="http://www.w3.org/2000/svg">
<path d="M0.0727539 19.7222H20.5033C23.9478 19.7222 25.8228 17.8472 25.8228 14.3889V13.1389C25.8228 9.69444 23.9478 7.81945 20.5033 7.81945H17.3089V5.61111C17.3089 2.15278 15.42 0.277778 11.9755 0.277778H0.0727539V4.65278H10.8644C12.2255 4.65278 12.4478 4.86111 12.4478 6.23611V7.81945H0.25331V12.1806H19.3783C20.7533 12.1806 20.9616 12.4028 20.9616 13.7639C20.9616 15.1389 20.7533 15.3472 19.3783 15.3472H0.0727539V19.7222Z" fill="white"/>
<path d="M38.704 7.81945V12.1806H47.6207V7.81945H38.704ZM38.5235 19.7222H62.7457V15.3472H38.5235V19.7222ZM38.5235 4.65278H62.3846V0.277778H38.5235V4.65278Z" fill="white"/>
<path d="M102.483 20H104.913V0.277778H100.052V12.9167L80.2607 0H77.8301V19.7222H82.6912V6.88889L102.483 20Z" fill="white"/>
<path d="M139.608 0.277778H119.4V4.65278H138.483C139.858 4.65278 140.066 4.86111 140.066 6.23611V13.7639C140.066 15.1389 139.858 15.3472 138.483 15.3472H119.4V19.7222H139.608C143.053 19.7222 144.928 17.8472 144.928 14.3889V5.61111C144.928 2.15278 143.053 0.277778 139.608 0.277778Z" fill="white"/>
</svg>
