<svg width="178" height="37" viewBox="0 0 178 37" fill="none" xmlns="http://www.w3.org/2000/svg">
<path d="M51.0547 1.15527C51.0547 1.7766 51.5583 2.28027 52.1797 2.28027H53.3047C53.926 2.28027 54.4297 1.7766 54.4297 1.15527C54.4297 0.533957 53.926 0.0302766 53.3047 0.0302766H52.1797C51.5583 0.0302766 51.0547 0.533957 51.0547 1.15527Z" fill="black"/>
<path d="M18.4297 36.0303H23.8948L22.3037 34.4393C21.8818 34.0173 21.3095 33.7803 20.7128 33.7803H18.4297C9.73119 33.7803 2.67969 26.7288 2.67969 18.0303C2.67969 9.33177 9.73119 2.28028 18.4297 2.28027H36.4297C45.1282 2.28027 52.1797 9.33177 52.1797 18.0303C52.1797 26.7288 45.1282 33.7803 36.4297 33.7803H29.6962C28.8011 33.7803 27.9427 33.4247 27.3097 32.7918L25.4458 30.9278C24.3909 29.8729 22.9601 29.2803 21.4683 29.2803H18.4297C12.2164 29.2803 7.17969 24.2435 7.17969 18.0303C7.17969 11.817 12.2164 6.78027 18.4297 6.78027H36.4297C42.6429 6.78027 47.6797 11.817 47.6797 18.0303C47.6797 24.2435 42.6429 29.2803 36.4297 29.2803H32.1062C31.211 29.2803 30.3526 28.9247 29.7196 28.2918L27.8557 26.4278C26.8008 25.3729 25.37 24.7803 23.8782 24.7803H18.4297C14.7018 24.7803 11.6797 21.7582 11.6797 18.0303C11.6797 14.3024 14.7018 11.2803 18.4297 11.2803H36.4297C40.1576 11.2803 43.1797 14.3024 43.1797 18.0303C43.1797 21.7127 40.2308 24.7065 36.5658 24.7789L36.565 24.7803H34.9187C34.0235 24.7803 33.1651 24.4247 32.5321 23.7918L30.6682 21.9278C29.8026 21.0622 28.684 20.5079 27.4862 20.3368L27.4297 20.2803H18.4297C17.1871 20.2803 16.1797 19.2729 16.1797 18.0303C16.1797 16.7876 17.1871 15.7803 18.4297 15.7803H36.4297C37.6723 15.7803 38.6797 16.7876 38.6797 18.0303C38.6797 19.2729 37.6723 20.2803 36.4297 20.2803H31.9297L33.5207 21.8713C33.9426 22.2932 34.5149 22.5303 35.1116 22.5303H36.4297C38.9149 22.5303 40.9297 20.5155 40.9297 18.0303C40.9297 15.545 38.9149 13.5303 36.4297 13.5303H18.4297C15.9444 13.5303 13.9297 15.545 13.9297 18.0303C13.9297 20.5155 15.9444 22.5303 18.4297 22.5303H26.6907C27.5858 22.5303 28.4443 22.8859 29.0772 23.5187L30.9412 25.3827C31.9961 26.4376 33.4268 27.0303 34.9187 27.0303H36.9922V27.013C41.7007 26.7227 45.4297 22.8119 45.4297 18.0303C45.4297 13.0598 41.4002 9.03027 36.4297 9.03027H18.4297C13.4592 9.03027 9.42969 13.0598 9.42969 18.0303C9.42969 23.0009 13.4592 27.0303 18.4297 27.0303H23.8782C24.7733 27.0303 25.6318 27.3859 26.2647 28.0187L28.1287 29.8827C29.1836 30.9376 30.6143 31.5303 32.1062 31.5303H36.4297C43.8856 31.5303 49.9297 25.4861 49.9297 18.0303C49.9297 10.5744 43.8856 4.53027 36.4297 4.53027H18.4297C10.9738 4.53027 4.92969 10.5744 4.92969 18.0303C4.92969 25.4861 10.9738 31.5303 18.4297 31.5303H21.4683C22.3634 31.5303 23.2218 31.8859 23.8548 32.5187L25.7188 34.3827C26.7737 35.4376 28.2044 36.0303 29.6962 36.0303H36.4297C46.3708 36.0303 54.4297 27.9714 54.4297 18.0303C54.4297 8.08914 46.3708 0.0302726 36.4297 0.0302734L18.4297 0.0302772C8.48856 0.030278 0.429687 8.08915 0.429688 18.0303C0.429688 27.9714 8.48857 36.0303 18.4297 36.0303Z" fill="black"/>
<path d="M75.5347 10.3983H74.5897L68.6497 27.0303H65.8957L72.6997 8.13027H77.3707L84.1747 27.0303H81.4207L75.5347 10.3983ZM69.3787 19.9563H80.3947V22.2243H69.3787V19.9563Z" fill="black"/>
<path d="M86.048 7.59027H88.586V27.0303H86.048V7.59027Z" fill="black"/>
<path d="M93.0492 13.5303V9.75027H95.6143V13.5303H98.9893V15.7983H95.6143V22.4403C95.6143 23.2683 95.7762 23.8533 96.1003 24.1953C96.4422 24.5373 96.8653 24.7353 97.3693 24.7893C97.8913 24.8253 98.4312 24.8073 98.9893 24.7353V26.9223C98.2513 27.0843 97.5222 27.1293 96.8022 27.0573C96.1003 27.0033 95.4613 26.8053 94.8853 26.4633C94.3273 26.1213 93.8773 25.6263 93.5352 24.9783C93.2113 24.3123 93.0492 23.4663 93.0492 22.4403V15.7983H91.1053V13.5303H93.0492Z" fill="black"/>
<path d="M107.425 27.2193C106.129 27.2193 104.977 26.9223 103.969 26.3283C102.979 25.7163 102.196 24.8793 101.62 23.8173C101.062 22.7553 100.783 21.5403 100.783 20.1723C100.783 18.8583 101.062 17.6883 101.62 16.6623C102.178 15.6363 102.943 14.8263 103.915 14.2323C104.905 13.6383 106.021 13.3413 107.263 13.3413C108.523 13.3413 109.639 13.6203 110.611 14.1783C111.583 14.7183 112.339 15.4833 112.879 16.4733C113.419 17.4453 113.68 18.5703 113.662 19.8483C113.662 20.0643 113.653 20.2893 113.635 20.5233C113.617 20.7393 113.59 20.9823 113.554 21.2523H103.564C103.618 21.9723 103.816 22.6113 104.158 23.1693C104.518 23.7093 104.968 24.1323 105.508 24.4383C106.066 24.7443 106.696 24.8973 107.398 24.8973C108.298 24.8973 109.081 24.7263 109.747 24.3843C110.413 24.0243 110.881 23.5473 111.151 22.9533L113.365 23.7363C112.825 24.8343 112.033 25.6893 110.989 26.3013C109.963 26.9133 108.775 27.2193 107.425 27.2193ZM110.881 19.0653C110.881 18.4173 110.719 17.8323 110.395 17.3103C110.071 16.7883 109.63 16.3833 109.072 16.0953C108.532 15.7893 107.92 15.6363 107.236 15.6363C106.624 15.6363 106.057 15.7893 105.535 16.0953C105.031 16.3833 104.599 16.7883 104.239 17.3103C103.897 17.8143 103.681 18.3993 103.591 19.0653H110.881Z" fill="black"/>
<path d="M116.51 13.5303H118.832L118.994 15.3393C119.372 14.8713 119.804 14.4843 120.29 14.1783C120.794 13.8543 121.334 13.6293 121.91 13.5033C122.504 13.3773 123.116 13.3863 123.746 13.5303V15.9333C123.152 15.7893 122.576 15.7713 122.018 15.8793C121.46 15.9873 120.956 16.2213 120.506 16.5813C120.074 16.9233 119.723 17.3823 119.453 17.9583C119.183 18.5343 119.048 19.2273 119.048 20.0373V27.0303H116.51V13.5303Z" fill="black"/>
<path d="M126.912 13.5303V9.75027H129.477V13.5303H132.852V15.7983H129.477V22.4403C129.477 23.2683 129.639 23.8533 129.963 24.1953C130.305 24.5373 130.728 24.7353 131.232 24.7893C131.754 24.8253 132.294 24.8073 132.852 24.7353V26.9223C132.114 27.0843 131.385 27.1293 130.665 27.0573C129.963 27.0033 129.324 26.8053 128.748 26.4633C128.19 26.1213 127.74 25.6263 127.398 24.9783C127.074 24.3123 126.912 23.4663 126.912 22.4403V15.7983H124.968V13.5303H126.912Z" fill="black"/>
<path d="M144.635 13.5303H147.281L139.451 32.4303H136.94L139.316 26.7603L133.97 13.5303H136.778L140.693 23.7633L144.635 13.5303Z" fill="black"/>
<path d="M151.717 24.7353L151.988 24.6543V32.4303H149.45V13.5303H151.772L151.961 15.5553C152.393 14.9433 152.987 14.4213 153.743 13.9893C154.517 13.5573 155.453 13.3413 156.551 13.3413C157.739 13.3413 158.792 13.6293 159.71 14.2053C160.628 14.7813 161.348 15.5913 161.87 16.6353C162.41 17.6613 162.68 18.8763 162.68 20.2803C162.68 21.6663 162.419 22.8813 161.897 23.9253C161.393 24.9693 160.682 25.7793 159.764 26.3553C158.846 26.9313 157.775 27.2193 156.551 27.2193C155.381 27.2193 154.382 26.9853 153.554 26.5173C152.743 26.0313 152.132 25.4373 151.717 24.7353ZM159.926 20.2803C159.926 18.8943 159.557 17.7783 158.819 16.9323C158.099 16.0863 157.154 15.6633 155.984 15.6633C155.228 15.6633 154.553 15.8433 153.959 16.2033C153.365 16.5633 152.887 17.0853 152.527 17.7693C152.168 18.4533 151.988 19.2903 151.988 20.2803C151.988 21.2523 152.168 22.0803 152.527 22.7643C152.887 23.4483 153.365 23.9793 153.959 24.3573C154.553 24.7173 155.228 24.8973 155.984 24.8973C157.154 24.8973 158.099 24.4743 158.819 23.6283C159.557 22.7823 159.926 21.6663 159.926 20.2803Z" fill="black"/>
<path d="M171.333 27.2193C170.037 27.2193 168.885 26.9223 167.877 26.3283C166.887 25.7163 166.104 24.8793 165.528 23.8173C164.97 22.7553 164.691 21.5403 164.691 20.1723C164.691 18.8583 164.97 17.6883 165.528 16.6623C166.086 15.6363 166.851 14.8263 167.823 14.2323C168.813 13.6383 169.929 13.3413 171.171 13.3413C172.431 13.3413 173.547 13.6203 174.519 14.1783C175.491 14.7183 176.247 15.4833 176.787 16.4733C177.327 17.4453 177.588 18.5703 177.57 19.8483C177.57 20.0643 177.561 20.2893 177.543 20.5233C177.525 20.7393 177.498 20.9823 177.462 21.2523H167.472C167.526 21.9723 167.724 22.6113 168.066 23.1693C168.426 23.7093 168.876 24.1323 169.416 24.4383C169.974 24.7443 170.604 24.8973 171.306 24.8973C172.206 24.8973 172.989 24.7263 173.655 24.3843C174.321 24.0243 174.789 23.5473 175.059 22.9533L177.273 23.7363C176.733 24.8343 175.941 25.6893 174.897 26.3013C173.871 26.9133 172.683 27.2193 171.333 27.2193ZM174.789 19.0653C174.789 18.4173 174.627 17.8323 174.303 17.3103C173.979 16.7883 173.538 16.3833 172.98 16.0953C172.44 15.7893 171.828 15.6363 171.144 15.6363C170.532 15.6363 169.965 15.7893 169.443 16.0953C168.939 16.3833 168.507 16.7883 168.147 17.3103C167.805 17.8143 167.589 18.3993 167.499 19.0653H174.789Z" fill="black"/>
</svg>
