<svg width="134" height="26" viewBox="0 0 134 26" fill="none" xmlns="http://www.w3.org/2000/svg">
<path d="M10.3118 0.276293C10.9498 -0.0920982 11.736 -0.0920976 12.3741 0.276294L20.8228 5.15417L14.9807 8.57495C14.0764 7.66708 12.825 7.10521 11.4423 7.10521C10.0044 7.10521 8.70834 7.71293 7.79709 8.68553L1.81425 5.18234L10.3118 0.276293Z" fill="white"/>
<path d="M6.65828 10.6613L0.674316 7.15742V16.9519L6.636 13.4611C6.5136 13.0282 6.4481 12.5715 6.4481 12.0994C6.4481 11.5995 6.52156 11.1167 6.65828 10.6613Z" fill="white"/>
<path d="M7.74349 15.4552L1.90826 18.8719L10.3118 23.7237C10.9498 24.0921 11.736 24.0921 12.3741 23.7237L20.7288 18.9001L15.0364 15.567C14.1282 16.5082 12.8536 17.0936 11.4423 17.0936C9.97592 17.0936 8.65714 16.4616 7.74349 15.4552Z" fill="white"/>
<path d="M16.2045 13.6084L22.0111 17.0084C22.0114 16.9953 22.0115 16.9821 22.0115 16.9689V7.10068L16.18 10.5152C16.3464 11.013 16.4365 11.5457 16.4365 12.0994C16.4365 12.6254 16.3552 13.1323 16.2045 13.6084Z" fill="white"/>
<path d="M32.8835 3.2H43.6355V5.6H35.7155V10.088H42.4355V12.464H35.7155V20H32.8835V3.2Z" fill="white"/>
<path d="M50.1071 20.384C48.9391 20.384 47.8911 20.12 46.9631 19.592C46.0511 19.048 45.3311 18.296 44.8031 17.336C44.2911 16.36 44.0351 15.256 44.0351 14.024C44.0351 12.776 44.2911 11.672 44.8031 10.712C45.3311 9.736 46.0511 8.976 46.9631 8.432C47.8911 7.888 48.9391 7.616 50.1071 7.616C51.2751 7.616 52.3151 7.888 53.2271 8.432C54.1391 8.976 54.8511 9.736 55.3631 10.712C55.8911 11.672 56.1551 12.776 56.1551 14.024C56.1551 15.256 55.8911 16.36 55.3631 17.336C54.8511 18.296 54.1391 19.048 53.2271 19.592C52.3151 20.12 51.2751 20.384 50.1071 20.384ZM50.1071 17.984C50.7471 17.984 51.3151 17.824 51.8111 17.504C52.3071 17.168 52.6831 16.704 52.9391 16.112C53.2111 15.504 53.3471 14.808 53.3471 14.024C53.3471 12.808 53.0511 11.84 52.4591 11.12C51.8671 10.384 51.0831 10.016 50.1071 10.016C49.4671 10.016 48.8991 10.184 48.4031 10.52C47.9231 10.84 47.5471 11.304 47.2751 11.912C47.0031 12.52 46.8671 13.224 46.8671 14.024C46.8671 15.224 47.1631 16.184 47.7551 16.904C48.3471 17.624 49.1311 17.984 50.1071 17.984Z" fill="white"/>
<path d="M58.226 8H60.986V12.296L60.65 13.88C60.65 12.632 60.762 11.568 60.986 10.688C61.226 9.808 61.57 9.144 62.018 8.696C62.482 8.232 63.026 8 63.65 8H65.858V10.4H63.89C63.202 10.4 62.642 10.552 62.21 10.856C61.794 11.16 61.482 11.64 61.274 12.296C61.082 12.936 60.986 13.784 60.986 14.84V20H58.226V8Z" fill="white"/>
<path d="M72.4106 20.384C71.1946 20.384 70.1226 20.12 69.1946 19.592C68.2666 19.064 67.5386 18.32 67.0106 17.36C66.4986 16.384 66.2426 15.264 66.2426 14C66.2426 12.752 66.4906 11.648 66.9866 10.688C67.4826 9.712 68.1706 8.96 69.0506 8.432C69.9466 7.888 70.9546 7.616 72.0746 7.616C73.2266 7.616 74.2346 7.888 75.0986 8.432C75.9786 8.96 76.6586 9.712 77.1386 10.688C77.6346 11.664 77.8826 12.784 77.8826 14.048V14.792H69.0986C69.0986 15.416 69.2346 15.976 69.5066 16.472C69.7786 16.952 70.1546 17.328 70.6346 17.6C71.1306 17.856 71.6906 17.984 72.3146 17.984C72.9706 17.984 73.5466 17.832 74.0426 17.528C74.5386 17.208 74.8746 16.784 75.0506 16.256L77.8586 16.496C77.6506 17.664 77.0506 18.608 76.0586 19.328C75.0666 20.032 73.8506 20.384 72.4106 20.384ZM75.0266 12.68C75.0266 12.136 74.9066 11.664 74.6666 11.264C74.4426 10.848 74.1066 10.536 73.6586 10.328C73.2106 10.12 72.6826 10.016 72.0746 10.016C71.1626 10.016 70.4346 10.256 69.8906 10.736C69.3626 11.216 69.0986 11.864 69.0986 12.68H75.0266Z" fill="white"/>
<path d="M84.9305 20.384C83.8265 20.384 82.8425 20.2 81.9785 19.832C81.1145 19.448 80.4345 18.92 79.9385 18.248C79.4585 17.576 79.2185 16.824 79.2185 15.992L81.9305 15.752C81.9305 16.424 82.2105 16.968 82.7705 17.384C83.3465 17.784 84.0985 17.984 85.0265 17.984C85.7785 17.984 86.3785 17.848 86.8265 17.576C87.2745 17.288 87.4985 16.896 87.4985 16.4C87.4985 16.016 87.3625 15.72 87.0905 15.512C86.8345 15.288 86.5065 15.136 86.1065 15.056C85.7065 14.96 85.1545 14.864 84.4505 14.768C83.4745 14.64 82.6825 14.488 82.0745 14.312C81.4665 14.136 80.9385 13.816 80.4905 13.352C80.0585 12.888 79.8425 12.208 79.8425 11.312C79.8425 10.592 80.0505 9.952 80.4665 9.392C80.8825 8.832 81.4665 8.4 82.2185 8.096C82.9705 7.776 83.8265 7.616 84.7865 7.616C85.7785 7.616 86.6505 7.776 87.4025 8.096C88.1705 8.4 88.7625 8.832 89.1785 9.392C89.6105 9.952 89.8265 10.592 89.8265 11.312L87.0905 11.552C87.0905 11.072 86.8825 10.696 86.4665 10.424C86.0505 10.152 85.4825 10.016 84.7625 10.016C84.1065 10.016 83.5945 10.136 83.2265 10.376C82.8585 10.6 82.6745 10.912 82.6745 11.312C82.6745 11.632 82.7865 11.88 83.0105 12.056C83.2505 12.232 83.5545 12.36 83.9225 12.44C84.2905 12.52 84.7945 12.6 85.4345 12.68C86.4425 12.824 87.2745 12.992 87.9305 13.184C88.5865 13.376 89.1465 13.728 89.6105 14.24C90.0905 14.736 90.3305 15.456 90.3305 16.4C90.3305 17.168 90.0985 17.856 89.6345 18.464C89.1705 19.072 88.5305 19.544 87.7145 19.88C86.8985 20.216 85.9705 20.384 84.9305 20.384Z" fill="white"/>
<path d="M92.6925 8H95.4525V20H92.6925V8ZM92.4044 3.416H95.7165V6.248H92.4044V3.416Z" fill="white"/>
<path d="M103.678 25.184C102.638 25.184 101.686 25.016 100.822 24.68C99.9743 24.344 99.3023 23.88 98.8063 23.288C98.3103 22.712 98.0623 22.072 98.0623 21.368L101.062 21.128C101.11 21.48 101.246 21.776 101.47 22.016C101.71 22.256 102.014 22.44 102.382 22.568C102.766 22.712 103.198 22.784 103.678 22.784C104.702 22.784 105.502 22.496 106.078 21.92C106.67 21.344 106.966 20.544 106.966 19.52V8H109.726V19.04C109.726 20.32 109.486 21.416 109.006 22.328C108.526 23.24 107.83 23.944 106.918 24.44C106.022 24.936 104.942 25.184 103.678 25.184ZM103.03 20.384C102.006 20.384 101.086 20.112 100.27 19.568C99.4703 19.024 98.8383 18.264 98.3743 17.288C97.9263 16.312 97.7023 15.216 97.7023 14C97.7023 12.768 97.9263 11.672 98.3743 10.712C98.8383 9.736 99.4703 8.976 100.27 8.432C101.086 7.888 102.006 7.616 103.03 7.616C103.926 7.616 104.702 7.824 105.358 8.24C106.03 8.656 106.542 9.248 106.894 10.016C107.262 10.784 107.446 11.688 107.446 12.728V15.272C107.446 16.296 107.262 17.2 106.894 17.984C106.542 18.752 106.03 19.344 105.358 19.76C104.702 20.176 103.926 20.384 103.03 20.384ZM103.75 17.984C104.39 17.984 104.95 17.824 105.43 17.504C105.926 17.168 106.302 16.696 106.558 16.088C106.83 15.48 106.966 14.784 106.966 14C106.966 13.216 106.83 12.52 106.558 11.912C106.302 11.304 105.926 10.84 105.43 10.52C104.95 10.184 104.39 10.016 103.75 10.016C103.126 10.016 102.566 10.184 102.07 10.52C101.59 10.84 101.214 11.304 100.942 11.912C100.67 12.52 100.534 13.216 100.534 14C100.534 14.784 100.67 15.48 100.942 16.088C101.214 16.696 101.59 17.168 102.07 17.504C102.566 17.824 103.126 17.984 103.75 17.984Z" fill="white"/>
<path d="M120.632 12.608C120.632 11.792 120.44 11.16 120.056 10.712C119.688 10.248 119.168 10.016 118.496 10.016C117.92 10.016 117.408 10.192 116.96 10.544C116.512 10.88 116.16 11.368 115.904 12.008C115.648 12.632 115.52 13.352 115.52 14.168L114.992 12.608C114.992 11.664 115.192 10.816 115.592 10.064C116.008 9.296 116.568 8.696 117.272 8.264C117.992 7.832 118.792 7.616 119.672 7.616C120.456 7.616 121.128 7.792 121.688 8.144C122.248 8.496 122.672 9.008 122.96 9.68C123.248 10.352 123.392 11.16 123.392 12.104V20H120.632V12.608ZM112.76 3.2H115.52V20H112.76V3.2Z" fill="white"/>
<path d="M131.176 20C128.616 20 127.336 18.776 127.336 16.328V4.136H130.096V16.16C130.096 16.64 130.216 17 130.456 17.24C130.696 17.48 131.056 17.6 131.536 17.6H133.696V20H131.176ZM124.744 8H133.696V10.4H124.744V8Z" fill="white"/>
</svg>
