<svg width="225" height="82" viewBox="0 0 225 82" fill="none" xmlns="http://www.w3.org/2000/svg">
<g clip-path="url(#clip0_115_479)">
<path d="M128.758 13.2666C135.116 13.2666 140.613 16.1166 143.447 20.2949V14.0557H154.134V63.7148C154.134 76.192 143.218 81.5643 130.654 81.5645C118.397 81.5645 108.438 76.5963 106.389 65.0625H118.167C119.354 69.9533 123.74 73.0342 130.73 73.0342C138.181 73.0342 143.447 69.395 143.447 63.6377V54.5684C140.613 58.7467 135.116 61.5967 128.758 61.5967C113.685 61.5967 105.833 50.063 105.833 37.4316C105.833 24.8773 113.992 13.2666 128.758 13.2666ZM74.1943 13.2666C80.5526 13.2667 86.0494 16.1166 88.8838 20.2949V14.0557H99.5703V60.249H88.8838V54.5684C86.0494 58.7466 80.5526 61.5966 74.1943 61.5967C59.4282 61.5967 51.2695 50.063 51.2695 37.4316C51.2695 24.8773 59.4282 13.2666 74.1943 13.2666ZM172.117 40.7432C172.117 46.1153 175.489 49.5049 180.832 49.5049H192.533V60.249H181.387C170.317 60.2489 161.431 54.7998 161.431 42.6309V14.0557H172.117V40.7432ZM224.574 60.249H213.888V49.5049H224.574V60.249ZM32.4238 0C42.8616 0 50.7139 7.41341 50.7139 17.4453C50.7138 27.4771 42.8615 34.8906 32.4238 34.8906H26.2188L50.7139 60.2295H35.9482L11.4531 34.8906H11.2998V60.2295H0V0H32.4238ZM75.7646 23.1445C66.4951 23.1445 62.2627 30.0184 62.2627 37.4316C62.2627 44.8448 66.4951 51.7188 75.7646 51.7188C85.034 51.7186 89.1895 44.8448 89.1895 37.4316C89.1895 30.0185 85.034 23.1446 75.7646 23.1445ZM130.348 23.1445C121.078 23.1445 116.846 30.0184 116.846 37.4316C116.846 44.8448 121.078 51.7188 130.348 51.7188C139.598 51.7186 143.772 44.8448 143.772 37.4316C143.772 30.0185 139.617 23.1446 130.348 23.1445ZM203.221 49.5049H192.533V14.0557H203.221V49.5049ZM11.2998 25.1279H31.3135C35.7182 25.1278 39.6442 21.8932 39.6445 17.4648C39.6445 13.0362 35.7183 9.80086 31.3135 9.80078H11.2998V25.1279Z" fill="#2C264A"/>
</g>
<defs>
<clipPath id="clip0_115_479">
<rect width="225" height="82" fill="white"/>
</clipPath>
</defs>
</svg>
